<svg height="2753.5835" viewBox="0 0 2753.5835 2753.5835" width="2753.5835" xmlns="http://www.w3.org/2000/svg"><path d="m1115.9999 1620.0427c-15.1233-2.7592-37.2928-9.9724-49.3396-16.0537-31.819-16.0622-57.0755-41.7441-72.70296-73.9278-8.2321-16.9533-11.6604-26.7235-15.6633-44.6381-3.9469-17.6642-4.2505-65.4446-.5258-82.7323 8.003-37.1439 23.06326-66.1012 46.88416-90.1469 23.3606-23.5811 51.5718-38.9118 84.7694-46.0661 18.5151-3.9901 58.0469-4.3376 76.5781-.6732 52.2992 10.3418 94.7294 43.3109 117.5034 91.3025 12.8957 27.1753 21.788 68.6977 21.819 101.8851l.013 11.6667h-121.3752c-110.7303 0-121.448.1897-122.2053 2.1632-1.4686 3.8271 3.7183 21.8411 9.7692 33.9284 13.05 26.0685 34.0144 38.7457 64.4686 38.984 24.721.1935 43.5918-9.204 54.0093-26.8961l4-6.7933 52.4817-.026 52.4818-.026-.9273 5c-1.6004 8.6287-8.551 23.6345-16.6179 35.877-17.4365 26.4619-49.4197 50.2199-82.0849 60.9753-20.3699 6.707-27.6067 7.7129-59.3334 8.2472-25.3287.4265-32.1799.1074-44-2.049zm98.5742-215.8778c.9405-1.7572.7027-5.0066-.8051-11-8.6981-34.5759-31.2157-53.3975-63.7691-53.3023-28.5939.084-46.9337 11.2969-59.0915 36.1296-6.7261 13.7382-10.2257 26.2762-8.062 28.8833 1.1983 1.4439 13.7485 1.7834 65.9365 1.7834 61.6039 0 64.5156-.1104 65.7912-2.494zm1311.4258 213.9637c-92.0353-15.1056-154.5208-82.0469-171.8797-184.1364-7.0058-41.2014-5.6966-93.2942 3.3344-132.6667 20.4156-89.0079 78.4528-149.293 160.6633-166.8865 12.9544-2.7723 18.0553-3.1132 46.5487-3.1113 25.339.001 34.4097.4928 43.5762 2.3594 63.9391 13.0196 112.7652 54.8544 131.7204 112.8594 2.0907 6.398 4.2224 14.4406 4.7371 17.8726l.9357 6.2398h-9.8842-9.8842l-3.5948-13c-15.266-55.2078-58.9056-93.6657-120.9396-106.5796-15.8346-3.2964-57.06-3.2795-74 .03-18.7805 3.6695-32.6592 8.3203-48.5146 16.2575-58.6055 29.338-94.436 86.0575-105.6804 167.2917-2.6288 18.9916-2.2631 67.6588.6512 86.6667 8.6698 56.5472 29.2074 100.6187 61.3501 131.6505 34.1983 33.0164 75.2068 48.6716 127.5271 48.6839 32.4764.01 55.218-5.0822 80.5004-18.0169 46.8389-23.9632 77.7858-67.39 88.8386-124.6641 1.4635-7.5838 2.661-14.0583 2.661-14.3877 0-.3295 4.2562-.599 9.4584-.599h9.4585l-.9116 7c-3.0525 23.4406-10.6967 49.0805-20.844 69.9137-23.6708 48.5984-65.586 81.7222-119.828 94.695-12.3935 2.9641-17.5191 3.4017-44.6667 3.8134-21.0798.3196-34.0012-.082-41.3333-1.2857zm-2525.99990195-242.8536v-238.0779l123.00000195.4665c107.76091.4087 124.49167.7419 135.03976 2.689 39.35615 7.2652 69.58303 22.7014 92.9426 47.4637 28.86866 30.6024 42.64434 70.8442 40.63706 118.7101-1.15961 27.6521-6.33762 47.7416-18.02941 69.9497-20.66264 39.248-60.16784 66.4188-108.76466 74.8058-9.52467 1.6438-24.4088 2.0436-76.0785 2.0436-49.2992 0-64.76112.3876-66.49026 1.6667-2.06375 1.5266-2.28124 8.2213-2.58818 79.6667l-.33508 78-59.666665.347-59.66666695.3471zm233.39593195-17.6377c11.0681-3.7002 21.77367-11.1557 28.24098-19.6672 13.1012-17.2423 16.11529-43.8371 7.55978-66.7037-3.90506-10.4372-15.9458-23.0836-26.47852-27.8104-14.88492-6.68-22.02928-7.4155-72.27578-7.4407-25.42336-.013-47.17336.3411-48.33334.7862-1.8807.7217-2.10905 7.4223-2.10905 61.8889 0 47.5925.36801 61.2378 1.66667 61.7963.91666.3941 24.46666.5709 52.33333.3928 48.10469-.3075 51.10807-.4715 59.39593-3.2422zm213.27073 85.7034v-170.0152h54.0051 54.00508l-.33842 169.6667-.33842 169.6667-53.66667.3484-53.66667.3485zm158.20162 168.3182c.56412-.9167 26.99953-40.9126 58.74535-88.8799 31.74583-47.9673 57.7197-87.6431 57.7197-88.1684 0-1.1101-24.39759-38.4392-71.86233-109.9517l-33.62879-50.6667 60.41222-.3476c33.22672-.1911 61.03627-.1084 61.79898.1841.76272.2924 12.13418 19.2246 25.26993 42.0716 20.12363 35.001 24.31293 41.4785 26.61325 41.1493 2.07906-.2976 8.13523-10.3194 25.39674-42.0268l22.66666-41.6361 56.33334-.03c30.98331-.017 56.33331.3252 56.33331.76s-21.9856 35.6475-48.85694 78.2503c-26.87132 42.6029-49.12543 78.4864-49.45356 79.7412-.36811 1.4076 20.91307 35.78 55.56264 89.7423 30.88756 48.1035 56.50816 88.3701 56.93456 89.4815.6872 1.7906-6.3282 1.9812-61.61523 1.674l-62.39072-.3466-26.75702-48.6667c-20.52416-37.33-27.39774-48.7583-29.50744-49.06-2.31446-.331-7.49234 7.4315-32.66667 48.9728l-29.91627 49.3661-59.07869.027c-46.92657.022-58.8677-.3156-58.05302-1.6394zm776.46492-236.3334v-238h54.6667 54.6667v238 238h-54.6667-54.6667zm198.6667.058v-238.0584l93 .011c54.5723.01 97.9584.5743 105 1.3743 27.1441 3.0839 47.2505 9.9932 67.2908 23.1237 37.2395 24.3997 52.4363 54.8068 52.3887 104.8244-.04 41.4699-10.8171 70.8097-34.1543 92.9778-19.3517 18.3823-45.7044 29.5371-79.4903 33.6476-6.6574.81-45.8478 1.3746-95.4117 1.3746-65.1992 0-84.6207.3748-86.3688 1.6667-2.0807 1.5377-2.2809 9.9721-2.5881 109l-.333 107.3333-9.6666.3918-9.6667.3917v-238.0584zm198.9317-.042c32.9187-4.3336 51.5978-12.4286 69.1268-29.9577 9.0559-9.0558 12.5363-13.716 16.9722-22.7253 9.379-19.0489 11.3866-28.8916 11.4222-56 .027-19.9558-.392-24.8661-2.8888-33.9226-5.0814-18.432-11.3536-29.2612-24.8586-42.9199-10.6523-10.7736-13.6512-12.9541-26.0388-18.932-15.5267-7.4928-29.3676-11.4376-47.3651-13.4992-12.7204-1.4572-169.5391-1.9856-173.1925-.5836-1.8995.7289-2.1091 11.6526-2.1091 109.8889 0 86.0161.3524 109.2218 1.6667 109.7521.9166.3699 37.786.7199 81.9317.7777 63.8891.084 83.3393-.2994 95.3333-1.8784zm197.0683-.016v-238h156 156v8.6667 8.6667h-143.4209c-96.314 0-144.2682.4533-146 1.3802-2.5144 1.3456-2.5791 3.8692-2.5791 100.6198s.065 99.2741 2.5791 100.6197c1.728.9248 46.1848 1.3803 134.7302 1.3803h132.1512l-.3969 8.3333-.3969 8.3333-134 .6827c-73.7.3755-134.15.8255-134.3334 1-.1833.1745-.3333 48.8531-.3333 108.1747 0 97.1218.2099 107.9379 2.1091 108.6666 1.16.4452 68.36.8094 149.3333.8094h147.2243v9.3333 9.3333h-159.3334-159.3333zm-1529.33324-194.6818v-43.3484l53.66667.3484 53.66667.3485.3518 43 .35181 43h-54.01848-54.01847z" fill="#3c3c3c" stroke-width="1.333333"/></svg>