<svg height="156.84076mm" viewBox="0 0 555.73497 555.73498" width="156.84076mm" xmlns="http://www.w3.org/2000/svg" xmlns:xlink="http://www.w3.org/1999/xlink"><clipPath id="a"><path d="m0 0h445v173h-445z"/></clipPath><clipPath id="b"><path d="m0 .06001282h444.588v172.42699718h-444.588z"/></clipPath><clipPath id="c"><path d="m0 0h445v173h-445z"/></clipPath><g transform="matrix(1.25 0 0 -1.25 0 383.85812)"><g clip-path="url(#a)" fill="#231f20"><path d="m112.341 81.785h10.821l-18.303 19.776h.79c.032 0 .064.01.096.01 3.494.024 6.645 1.396 9.022 3.596 1.111 1.025 2.002 2.265 2.722 3.604 1.013 1.876 1.642 3.985 1.642 6.269 0 7.445-6.033 13.48-13.482 13.48h-19.081v-86.232h7.97601v19.729l17.79699-19.729h10.821l-18.276 19.749h-10.34199v19.72901l17.79699-19.72901h10.821l-18.276 19.748h-10.34199v19.73zm-17.79699 39.551h11.10499v.003c3.472 0 6.301-2.826 6.301-6.299 0-3.419-2.754-6.185-6.157-6.269h-11.24899z"/><path d="m420.001 101.561s11.169.01 11.201.01c3.494.025 6.644 1.396 9.022 3.596 1.111 1.026 2.002 2.265 2.726 3.605 1.01 1.875 1.638 3.985 1.638 6.268 0 7.445-6.033 13.48-13.482 13.48h-19.081v-86.232h7.976zm11.105 7.211h-11.105v12.564h11.105v.003c3.472 0 6.3-2.826 6.3-6.299 0-3.418-2.753-6.185-6.156-6.268z"/><path d="m44.516 42.288h30.427v7.184h-22.516v12.565h22.516v7.211h-22.516v12.537h22.516v7.238h-22.516v12.538h22.516v7.211h-22.516v12.564h22.516v7.184h-30.427z"/><path d="m151.861 42.288h30.426v7.184h-22.515v12.565h22.515v7.211h-22.515v12.537h22.515v7.238h-22.515v12.538h22.515v7.211h-22.515v12.564h22.515v7.184h-30.426z"/><path d="m356.85 108.772h.161l17.508-18.97 17.508 18.97h.155v-66.484h8.041v87.22l-.913-.987-24.791-26.866-24.797 26.866-.912.987v-87.22h8.04z"/><path d="m267.926 121.468c6.167 0 11.47-3.738 14.046-9.116l6.881 3.638c-2.893 5.991-8.051 10.601-14.325 12.531-2.094.641-4.305.987-6.602.987-2.184 0-4.256-.408-6.258-.987-8.808-2.542-15.484-10.204-16.864-19.749-.177-1.189-.354-2.38-.354-3.62 0-3.521.757-6.849 2.05-9.87299 1.009-2.34901 2.469-4.386 4.111-6.25601.586-.65999 1.106-1.379 1.75-1.975.617-.57499 1.246-1.14 1.922-1.64199 2.259-1.68801 4.857-2.85 7.616-3.62001.569-.15899 1.09-.42 1.669-.53199 1.417-.277 2.866-.45601 4.358-.45601 1.53 0 3.006.20401 4.45.49701.531.10699 1.003.348 1.519.49099 2.753.767 5.34 1.929 7.594 3.62001 1.401 1.04899 2.652 2.289 3.806 3.61699 1.39 1.6 2.619 3.347 3.558 5.292l-1.825.96401-5.056 2.67299c-.456-.956-1.03-1.833-1.648-2.67299-1.991-2.70301-4.739-4.76902-7.948-5.765-.687-.21401-1.396-.37801-2.12-.49101h-4.385c-.784.129-1.551.306-2.303.53201-3.252.98199-6.059 3-8.072 5.724-1.728 2.334-2.834 5.14699-3.135 8.23099-.054.547-.161 1.078-.161 1.642 0 1.248.167 2.452.419 3.62 1.599 7.254 7.841 12.696 15.307 12.696"/><path d="m374.52 70.052 10.824 11.733h-21.656z"/></g><g clip-path="url(#b)"><path d="m30.368 85.201c1.186 1.125 2.077 2.434 2.77 3.821.934 1.86 1.465 3.878 1.465 5.945 0 2.553-.682 4.887-1.97 6.897-2.039 3.185-5.636 5.542-10.686 6.55l-1.734.357-4.078.84-.908.188c-3.628.792-5.474 3.032-5.474 5.999 0 3.56 3.295 6.724 8.045 6.724 6.258 0 8.7-4.286 9.162-7.187l7.117 2.241c-.816 4.02-3.591 8.907-9.859 10.944-1.853.604-3.978.988-6.49.988-1.985 0-3.881-.374-5.641-.988-5.952-2.072-10.246-7.263-10.246-13.316 0-2.463.661-4.589 1.745-6.433.746-1.261 1.652-2.41 2.812-3.357 1.949-1.59 4.423-2.737 7.311-3.327l.434-.092 6.157-1.293c4.019-.857 6.263-3.29499 6.263-6.329 0-2.17-1.165-3.965-3.199-5.131-.14-.077-.295-.14099-.429-.22-.252-.14399-.489-.29999-.795-.40699-1.153-.418-2.474-.70101-4.079-.70101-1.953 0-3.574.446-4.981 1.108-.134.06601-.3.094-.429.16101-3.193999 1.66199-4.953999 4.76699-5.271 8.09199l-5.512-1.574-1.868-.536c.22-2.058.961-4.17 2.137-6.143.901-1.51 2.028-2.94799 3.515-4.172 1.632-1.34799 3.720001-2.36099 6.14-3.065.338-.099.618-.258.972-.341 1.621-.376 3.338-.646 5.297-.646.756 0 1.433.10901 2.142.17801l.097-.02301c4.019-.856 6.263-3.295 6.263-6.328 0-2.587-1.541-4.72099-4.423-5.759-1.153-.41799-2.474-.701-4.079-.701-6.725 0-10.219 4.485-10.681 9.361l-5.512-1.575-1.868-.534c.575-5.317 4.176-11.148 11.497-13.381 1.937-.59 4.079-.987 6.564-.987.756 0 1.433.11 2.142.177l.097-.022c4.019-.856 6.263-3.295 6.263-6.328 0-3.626-2.899-6.459-8.502-6.459-6.725 0-10.219 4.484-10.681 9.36l-7.38-2.109c.575-5.316 4.176-11.148 11.497-13.381 1.937-.59 4.079-.987 6.564-.987 2.357 0 4.433.384 6.312.987 6.623 2.131 10.23 7.533 10.23 13.182 0 2.432-.682 4.63-1.863 6.567h-8.576c2.34.709 4.352 1.774 5.915 3.183 2.951 2.657 4.524 6.274 4.524 9.999 0 2.42401-.655 4.627-1.819 6.567h-8.712c2.368.714 4.423 1.76001 6.007 3.18.091.084.198.153.289.236" fill="#231f20"/></g><g clip-path="url(#c)" fill="#231f20"><path d="m374.52 50.304 10.824 11.733h-21.656z"/><path d="m267.926 49.34c-7.466 0-13.708 5.442-15.307 12.697h-7.82c1.385-9.546 8.061-17.208 16.869-19.749 2.002-.58 4.074-.988 6.258-.988 2.297 0 4.508.346 6.602.988 6.274 1.929 11.432 6.539 14.325 12.529l-6.881 3.637c-2.576-5.376-7.879-9.114-14.046-9.114"/><path d="m281.972 78.203c-.456-.956-1.031-1.833-1.648-2.673-2.866-3.88899-7.326-6.441-12.398-6.441-5.077 0-9.553 2.55201-12.43 6.441-1.342 1.80801-2.163 3.966-2.673 6.255h-7.992c.328-2.182.832-4.299 1.669-6.255 1.363-3.17799 3.392-5.947 5.861-8.231 2.652-2.458 5.861-4.232 9.377-5.262 1.974-.58 4.025-.988 6.188-.988 2.297 0 4.508.347 6.602.988 6.274 1.929 11.432 6.54 14.325 12.529l-1.825.964z"/><path d="m211.377 81.785h23.524v-19.748l-.155-20.67-23.369 20.67 23.492.026zm15.613 18.004-32.3 28.731-1.089.988v-87.22h7.911v68.917l33.389-29.42v46.735h-7.911z"/><path d="m317.32 129.508-25.837-47.723h9.114l6.692 12.57801h20.058l6.692-12.57801h9.114zm-6.204-27.947 6.204 11.658 6.2-11.658zm21.345-19.776 10.692-19.748h-9.114l-6.692 12.57801h-20.058l-6.692-12.57801h-9.114l10.691 19.748zm0-19.748 10.692-19.749h-9.114l-6.692 12.578h-20.058l-6.692-12.578h-9.114l10.691 19.749z"/><path d="m131.266 42.288h8.03999v86.232h-8.03999z"/><g font-family="CircularStd" font-size="20.493401"><text transform="matrix(1 0 0 -1 80.0054 148.9089)"><tspan x="0 5.881606 21.661524 33.937069 45.823242 58.631618 74.411537 87.21991 99.495461 105.35657 121.93573 137.69516 152.12251 163.35289 175.1366 187.59659 193.02733 204.25772 216.04143 228.5014 240.77696 246.63806 259.09805 273.50491" y="0">INTERNATIONALES FESTIVAL</tspan></text><text transform="matrix(1 0 0 -1 82.31501 5.756361)"><tspan x="0 11.312357 25.227375 38.179203 43.589462 56.008461 67.915131 80.866959 86.68708 98.59375 114.53761 119.94787 133.86288 149.60182 164.62349 170.03374 183.12903 195.9169 203.58144 217.41447 231.41147 241.00238 253.40089 267.39789" y="0">FÜR SERIEN UND TV-KULTUR</tspan></text></g></g></g></svg>