<svg height="351.72501" viewBox="0 0 351.72501 351.725" width="351.72501" xmlns="http://www.w3.org/2000/svg"><g fill="#231f20" transform="matrix(.125 0 0 -.125 .0030925 275.7162525)"><path d="m113.574 569.781v7.008c0 16.672-6.269 30.774-20.031 30.774-15.1524 0-21.9219-12.454-21.9219-25.333 0-56.582 114.9219-28.718 114.9219-133.281 0-60.949-33.605-88.179-95.625-88.179-58.418 0-90.918 21.25-90.918 80.511v9.918h68.1836v-6.898c0-24.223 9.5312-33.051 22.9961-33.051 14.3863 0 22.8243 11.969 22.8243 27.609 0 56.481-110.66416 28.231-110.66416 129.86 0 57.652 29.16016 89.273 88.65236 89.273 61.3278 0 87.4728-26.75 87.4728-88.211z"/><path d="m256.602 589.02h-52.942v63.472h176.516v-63.472h-52.969v-222.731h-70.605z"/><path d="m378.301 366.289h74.812l7.239 50.09h56.015l7.188-50.09h75.207l-66.125 286.203h-88.438zm129.836 106.16h-39.375l19.402 121.492h.566z"/><path d="m629.297 366.289h102.363c81.199 0 85.457 68.211 85.457 143.063 0 74.867-4.258 143.14-85.457 143.14h-102.363zm70.351 232.465h14.153c27.105 0 30.594-12.055 30.594-89.402 0-77.25-3.489-89.274-30.594-89.274h-14.153z"/><path d="m882.246 589.02h-53.113v63.472h176.427v-63.472h-52.986v-222.731h-70.328z"/><path d="m1085.37 589.02h-52.86v63.472h176.25v-63.472h-52.95v-222.731h-70.44z"/><path d="m1234.21 652.492h70.45v-105.023h43.25v105.023h70.26v-286.203h-70.26v117.84h-43.25v-117.84h-70.45z"/><path d="m1470.41 652.492h160.17v-60.914h-89.61v-48.808h84.06v-58.641h-84.06v-56.899h93v-60.941h-163.56z"/><path d="m1647.61 366.289h75.01l7.12 50.09h56.19l7.18-50.09h74.85l-65.95 286.203h-88.45zm129.87 106.16h-39.33l19.37 121.492h.81z"/><path d="m1924.81 589.02h-52.97v63.472h176.43v-63.472h-53.06v-222.731h-70.4z"/><path d="m2077.5 652.492h159.93v-60.914h-89.67v-48.808h84.03v-58.641h-84.03v-56.899h93.17v-60.941h-163.43z"/><path d="m2276.27 366.289h70.34v114.652h18.56c17.02 0 23.1-8.492 23.1-40.953v-19.168c0-12.019 0-39.289 6.73-54.531h74.98v4.082c-4.45 2.328-6.04 5.41-7.95 8.91-3.39 5.36-3.39 24.93-3.39 39.43v24.48c0 38.207-10.16 60.887-44.18 64.2v.679c32.1 5.289 46.12 30.141 46.12 68.231 0 44.054-20.4 76.191-74.38 76.191h-109.93zm70.34 232.465h13.76c20.95 0 29.79-10.106 29.79-33.242 0-20.492-9.53-34.223-29.65-34.223h-13.9z"/><path d="m1199.87 161.09h90.95v-155.53141h-47.72l-1.57 25.06251h-.74c-9.49-24.21094-34.32-30.6211-58.21-30.6211-71.63 0-78.19 53.9297-78.19 148.551 0 95.969 17.53 148.699 100.77 148.699 50.09 0 85.66-26.738 85.66-96.039h-68.24c0 14.379-1.13 25.641-3.76 33.187-2.71 7.954-7.89 12.454-16.34 12.454-22.95 0-25.2-20.911-25.2-98.301 0-77.1799 2.25-98.0315 23.63-98.0315 14.84 0 23.64 10.1016 24.01 59.9685h-25.05z"/><path d="m1335.81 5.55859h70.3516v286.203h-70.3516v-286.203z"/><path d="m1446.45 291.762h160.04v-60.922h-89.64v-48.809h84.02v-58.601h-84.02v-56.9417h93.15v-60.92971h-163.55z"/><path d="m1750.49 209.039v7.012c0 16.668-6.47 30.801-20.17 30.801-15.08 0-21.79-12.454-21.79-25.364 0-56.578 115.01-28.718 115.01-133.3083 0-60.8594-33.73-88.1797-95.79-88.1797-58.29 0-90.88 21.25-90.88 80.5508v9.9375h68.11v-6.9297c0-24.2188 9.44-33.0391 23.08-33.0391 14.48 0 22.81 11.9024 22.81 27.6289 0 56.4416-110.59 28.2616-110.59 129.8716 0 57.64 29.18 89.23 88.54 89.23 61.39 0 87.4-26.738 87.4-88.211z"/><path d="m1953.76 209.039v7.012c0 16.668-6.31 30.801-20.02 30.801-15.23 0-22.02-12.454-22.02-25.364 0-56.578 115.03-28.718 115.03-133.3083 0-60.8594-33.65-88.1797-95.73-88.1797-58.24 0-90.87 21.25-90.87 80.5508v9.9375h68.03v-6.9297c0-24.2188 9.68-33.0391 23.29-33.0391 14.39 0 22.79 11.9024 22.79 27.6289 0 56.4416-110.57 28.2616-110.57 129.8716 0 57.64 29.09 89.23 88.67 89.23 61.26 0 87.26-26.738 87.26-88.211z"/><path d="m2055.61 291.762h160.22v-60.922h-89.67v-48.809h83.91v-58.601h-83.91v-56.9417h92.95v-60.92971h-163.5z"/><path d="m2263.85 291.762h78.84l45.34-176.313h.77v176.313h65.9v-286.20341h-77.44l-46.7 176.73041h-.81v-176.73041h-65.9z"/><path d="m687.727 851.332c-3.516 45.918 55.046 64.664 121.687 67.793 67.383 3.254 97.754 24.105 143.762 34.734 46.082 10.688 54.744 14.461 90.534 18.063 21.99 2.34 178.08 28.039 196.92 28.039 18.99 0 67.94 18.409 89.51 18.409 11.77 0 27.07 5.33 47.47 5.33 10.03 0 27.86-1.23 45.37.37 18.54 1.79 36.76 5.93 51.02 5.56 48-1.43 101.99 1.39 121.06 1.39 18.89 0 49.66 7.21 80.25 4.27 30.58-2.82 69.82 0 91.72 0 21.89 0 151.01-7.95 191.86-12.29 4.32-.53 27.29 2.47 33.7 1.75 5.41-.73 95.45-2.23 109.18-2.59 9.14-.2 91.04-8.23 99.05-8.86 10.34-.85 38.69-18.527 76.11-19.749 9.28-.285 33.03-8.891 54.03-11.399 21.54-2.562 45.02-16.457 69.15-17.777 8.66-.453 65.08-19.434 101.44-25.957 32.08-2.313 98.14-28.727 120.03-38.883 27.39-12.48 105.66-48.301 121.61-84.805 16.11-36.464 11.04-54.765 11.04-69.328 0-14.5 3.69-34.16 3.69-45.839 0-11.708-21.91-35.465-23.36-54.469-1.57-18.899-30.69-213.922-29.2-242.992 1.36-29.18.08-151.743-1.49-172.051-1.51-20.379 5.19-97.141-28.35-97.141-33.5 0-48.32 29.301-62.79 43.801-30.39 30.488-18.47 33.609-15.4 83.098 1.61 25.25-6.3 26.511-11.64 71.101-4.19 34.442-2.97 90.051-2.97 113.449 0 23.332-1.42 52.539 4.53 74.36 5.79 21.863 5.79 23.261 5.79 33.511 0 10.18-11.79 7.239-7.35 52.571 4.48 45.078 10.28 107.808 10.28 122.461 0 14.531 1.47 15.894-4.47 21.734-5.81 5.93-91.97 62.141-237.77 94.231-54.73 11.953-105.53 20.847-151.72 30.253-77.06 15.586-150.32 22.571-195.75 23.465-72.95 1.457-370.43 0-418.58-2.89-16.18-1.114-58.26-3.219-119.14-5.614-10.99-.5-23.83-1.203-35.52-2.082-10.77-.879-24.64-.371-35.72-1.25-12.45-1.023-23.37-4.336-35.85-5.3-7.49-.618-90.01-10.871-101.83-11.954-8.89-.781-73.31-10.8-83.78-12.07-20.61-2.363-50.5-10.906-90.11-22.805-55.33-16.66-115.972-31.667-139.812-35.972-40.773-7.27-109.348-21.77-151.66-21.77-42.293 0-103.02 30.028-106.531 76.094"/><path d="m939.766 1263.44c83.774 12.2 300.414 49.26 419.864 57.94 125.34 9.17 336.25 24.3 407.63 21.84 71.49-2.43 78.68-9.55 97.74-11.97 19.18-2.36 66.81-7.19 97.9-9.54 30.94-2.33 221.62-21.4 290.84-33.28 69.3-11.91 205.49-37.21 252.87-45.42 40.79-6.98 68.42-21.97 94.55-31.5 26.3-9.52 220.02-59.53 212.37-132.94-9.34-88.015-158.97-47.92-197.19-40.68-38.17 7.12-226.68 57.22-255.26 62.02-28.63 4.79-102.33 26.5-124.04 26.27-20.7-.23-41.19 21.89-58.92 21.19-41.25-1.61-69.71 15.12-83.93 16.72-18 2.03-88.24 11.46-105.37 12.32-53.47 2.47-118.64-2.26-140.54 1.47-15.21 2.65-110.38 13.8-126.62 13.8-128.33 0-366.96-15.37-483.8-29.67-116.85-14.35-190.76-38.28-219.4-42.98-28.601-4.84-90.745-19.18-121.663-26.28-31.027-7.17-107.688-19.46-133.555-23.84-34.304-5.64-91.355-21.41-115.195 31.06-23.859 52.55 5.461 107.31 41.164 119.21 35.867 11.99 169.441 32.3 250.555 44.26"/><path d="m2212.63 1585.83c17.72 15.74 56.34 6.75 62.37 1.54 11.77-10.05 61.45-54.92 60.92-93.64-.89-59.25-27.25-96.86-42.41-122.14-11.12-18.45-42.1-32.8-64.06-23.43-20.99 8.8-28.63 23.43-47.19 60.52-10.51 21.12-11.53 32.16-11.14 49.52.23 13.15.02 26.6 4.33 44.89 10.16 42.07 20.15 67.3 37.18 82.74"/><path d="m1602.52 1540c81.64 0 196.73 9.67 273.53-12.8 76.85-22.38 49.65-32 65.6-36.9 16.01-4.69 66.87-2.34 103.65-37.53 36.74-35.05 27.68-79.23-55.62-74.41-83.2 4.82-80.63 5.53-139.88 10.28-59.25 4.84-107.29 24.27-167.91 25.93-23.8.65-112.96-.79-148.06.95-59.09 2.78-95.72 3.66-128.17 2.3-73.47-3.08-145.46-23.5-150.32 40.58-4.8 63.95 52.85 60.79 78.47 59.12 25.59-1.56 36.77 17.65 71.85 17.65 35.36 0 84.95 4.83 113.81 4.83z"/><path d="m1072.9 1597.66c43.26 0 91.22-49.72 92.78-73.68 2.51-35.12 3.35-48.11-12.14-103.27-7.86-27.78-16.66-46.44-24.61-59.44-10.4-16.87-37.64-33.71-51.7-33.71-51.16 0-73.07 98.83-74.67 181.94-1.48 73.66 51.15 88.16 70.34 88.16"/></g></svg>