<svg height="123.07909mm" viewBox="0 0 436.10703 436.107" width="123.07909mm" xmlns="http://www.w3.org/2000/svg"><g transform="translate(-119.27869 -321.847672)"><path d="m360.39196 698.75507c.004-.2475.94821-10.98 2.09949-23.85s2.09346-24.2775 2.09375-25.35l.00051-1.95h-10.2c-7.78401 0-10.18934-.17765-10.15499-.75.0248-.4125 1.46161-3.045 3.193-5.85l3.14797-5.1 12.99237-.16166 12.99238-.16166 2.37429 2.14503c1.30586 1.17976 2.53937 2.89661 2.74112 3.81522.29869 1.35993-2.87795 35.60352-4.23134 45.61299-.34488 2.55067.14781 2.01201 13.15373-14.38089l13.51202-17.03082-1.80106-.75729c-6.20162-2.60759-9.14123-8.33177-7.0827-13.79186.8637-2.29087 4.04098-5.55098 6.39393-6.56061 2.46216-1.05648 8.03763-1.06716 10.53855-.0202 2.7011 1.13079 6.28269 5.29247 6.76435 7.85993.54343 2.89677-.11749 6.84631-1.61244 9.63556-1.30774 2.43996-28.97245 37.1608-33.1591 41.61662-1.35414 1.44121-3.81208 3.26107-5.46208 4.04414-2.66698 1.26571-3.84922 1.42441-10.65 1.42962-4.2075.003-7.64719-.19664-7.64375-.44414zm-236.25625-4.18933c-2.52997-.22787-2.55-.24825-2.55-2.59517v-2.3655h117.9 117.9l-.008 1.35c-.005.7425-.171 1.9575-.36999 2.7l-.36181 1.35-114.98002-.10483c-63.23901-.0576-116.12752-.20817-117.53002-.3345zm265.74666-.0882c-.62315-.39498-.37369-.99854 1.11216-2.69082l1.91548-2.18162h81.23785 81.23785v2.3358c0 1.57646-.30854 2.45421-.94908 2.7-1.48413.56952-163.652.40853-164.55426-.16336zm-66.73679-78.35603c-3.31196-1.72568-6.74971-5.39692-7.81669-8.34761-.43134-1.19283-1.00001-2.16879-1.26372-2.16879-.2637 0-.47946-47.925-.47946-106.50001 0-64.63088.21759-106.5.55347-106.5.3044 0 .84546-.88477 1.20235-1.96615.96453-2.92254 3.97709-6.25608 7.45781-8.25243 2.79845-1.60503 3.59911-1.77068 8.58284-1.77579l5.49648-.006 1.25352 2.58944c.68944 1.4242 1.25353 2.7915 1.25353 3.03845 0 .24696.63349 1.84921 1.40776 3.56057.77427 1.71135 1.89322 4.39999 2.48655 5.97475l1.07879 2.86318-9.98655 17.38383c-5.49261 9.5611-9.98655 17.51159-9.98655 17.66777 0 .15616 3.16902.36001 7.04227.45298l7.04229.16904-5.06139 3.81193c-2.78377 2.09656-6.96529 4.69602-9.29229 5.77657-4.17136 1.93701-5.02284 2.2421-8.28088 2.96717-2.87956.64083-1.95134 1.74875 1.11319 1.3287 5.27581-.72313 17.38104-7.64573 22.31109-12.75901 1.32928-1.37868 1.67536-1.42536 10.56905-1.42536h9.19477l2.73732 6.45c8.02027 18.8983 7.69254 17.93711 7.26724 21.3137-1.31191 10.41558-11.03639 20.52633-20.48109 21.29463-7.38448.6007-7.98064.23126-21.91157-13.57872-10.33065-10.24095-12.45-12.08878-12.45-10.85498 0 1.13267 2.7921 4.27301 11.71944 13.18115 10.70388 10.68085 11.79964 11.9679 12.64494 14.85235.96255 3.2846 1.26788 9.83471.56209 12.05845-.2872.90488-.15298 1.28342.45506 1.28342 1.18019 0 1.66011-4.7274.93622-9.22228-.31243-1.94007-.41278-3.68268-.223-3.87248.18979-.18978 3.28378 2.58453 6.87553 6.16514 4.34769 4.3342 7.28528 6.7697 8.78877 7.28658 2.01906.69412 1.38865-.095-5.95036-7.44806-4.51478-4.52344-8.20869-8.35593-8.20869-8.51666s2.4975-.29224 5.55-.29224c5.18124 0 5.80165-.13644 9.33755-2.05361 6.38027-3.45938 11.51216-10.3337 12.46679-16.69965.60068-4.00557 1.59756-3.86636 3.24587.45326.44073 1.155 3.24675 7.905 6.2356 15 5.24183 12.44316 5.42967 13.04711 5.30407 17.05386-.0716 2.28462.14934 5.19202.49102 6.46089l.62122 2.30705 2.72322-1.87364c5.06591-3.48543 8.56335-4.36518 18.38519-4.6246 7.67002-.20259 9.40812-.0677 12.93603 1.00386 4.72363 1.43475 8.38221 3.88735 10.82107 7.2541l1.722 2.37716.39137-3.3299c.21525-1.83144.90384-4.31965 1.53021-5.52934s1.80762-3.95444 2.625-6.09944 3.22624-8.085 5.35302-13.2c2.12677-5.115 5.41905-13.08 7.31616-17.7s3.66843-8.62918 3.93625-8.9093c.26783-.28012.68222.39488.92088 1.5.9554 4.42406 5.06687 10.7093 7.00544 10.7093 1.02417 0 .91531-.30403-.84537-2.36098-3.00855-3.51481-4.88304-7.69256-5.13251-11.43902-.20083-3.01606.20297-4.3067 4.69304-15 2.70203-6.435 5.442-13.05 6.08881-14.7.64682-1.65 1.54448-3.81 1.99479-4.8s1.44954-3.40043 2.22053-5.3565c.77097-1.95608 1.66299-3.63774 1.98226-3.73703.31927-.0993 1.44195 1.63614 2.49486 3.85651 1.05291 2.22036 3.14541 5.43059 4.65 7.13383 2.68222 3.03636 2.73563 3.17738 2.73563 7.22394 0 8.25253 3.10639 15.72579 9.23812 22.22475 3.13412 3.32184 9.34638 7.84934 11.9703 8.72398.31404.10468-2.18948 2.97794-5.56338 6.38504-7.12509 7.19518-9.53102 8.44548-16.25148 8.44548-2.73625 0-4.19356.23743-4.19356.68323 0 .4834 1.58695.59273 5.42617.37384l5.42617-.30939-1.07617 1.26709c-.5919.69691-3.50617 3.7016-6.47617 6.67711-6.55191 6.56404-6.80284 6.87725-7.52379 9.39105-.48923 1.70586.7471.68096 8.42521-6.98435l8.99858-8.98357.008 5.39249c.005 2.96588.15595 5.94249.33655 6.61469.23631.87954-.69117 2.51521-3.30819 5.83424-2.00007 2.53663-3.63652 4.75415-3.63652 4.92781 0 .17367 7.02033.31576 15.60073.31576h15.60074l10.58701-13.35c5.82286-7.3425 10.67143-13.4514 10.77461-13.57534.10317-.12393.94119.68002 1.86225 1.78657 4.18986 5.03365 12.50427 11.84781 15.62466 12.80537 1.15046.35304 1.35.83227 1.35 3.24239v2.82812l-8.55 3.50805c-4.7025 1.92944-9.36 3.85502-10.35 4.27908-7.26501 3.11194-9.3 4.0985-9.3 4.50863 0 .25794-.17354.92122-.38564 1.47394-.33402.87045-.0569.83726 2.07035-.24799 1.35079-.68913 3.88683-1.80172 5.63564-2.47243 1.7488-.67072 3.71965-1.47739 4.37965-1.79262 1.44996-.69252 16.05052-6.59377 16.31397-6.59377.10231 0 .18603 12.98576.18603 28.85723v28.85723l-10.95-.21004-10.95-.21004-3.78059-2.04709c-9.5154-5.15232-14.77227-14.03645-14.80374-25.01832-.0116-4.05899-.20503-5.39903-.74935-5.19207-2.33582.88814-1.27815 11.03534 1.85766 17.82239 2.17803 4.71407 5.73946 8.75649 10.87602 12.34491l3 2.09581-107.55.15163c-106.18787.14972-107.55.16647-107.55 1.32193 0 .81115.8338 1.53911 2.7171 2.37218 3.79555 1.67896 9.48751 7.27867 11.02027 10.84167 2.40828 5.59818 2.68266 8.39526 1.24424 12.68397-1.81283 5.40504-3.56708 7.43802-8.25074 9.5617-2.19433.99496-4.60646 1.96381-5.36029 2.15301-.82316.2066-1.37058.7973-1.37058 1.47895 0 1.52274.32392 1.4694 6.10249-1.00491 4.52732-1.93856 5.35285-2.10607 8.77442-1.78054 10.21617.97198 18.7013 8.95276 18.71722 17.60471.003 1.75137-.29619 4.38387-.66536 5.85l-.67123 2.6657-10.27877-.028c-9.62848-.0262-10.45213-.11827-13.0189-1.45566zm2.81063-69.86465c1.35877-.61704 2.88563-1.71458 3.39301-2.43897.91935-1.31256.92387-1.31283 1.31497-.0806.21584.68007 1.0879 1.78354 1.9379 2.45214 1.45206 1.1422 2.39372 1.21566 15.5838 1.21566 15.77632 0 16.79604-.20297 19.89233-3.95931 2.39281-2.90289 2.51808-3.2959 7.0111-21.99655l3.71849-15.47685-8.13111.16635-8.13111.16635-3.91852 15.75-3.91852 15.75001h-3.76143c-2.06877 0-3.76141-.1091-3.76141-.24244s1.62-6.99992 3.6-15.25906c1.98-8.25915 3.6-15.30506 3.6-15.65757 0-.42236-2.71368-.64094-7.95746-.64094h-7.95745l-3.89255 15.75-3.89254 15.75001-3.75.17863c-2.0625.0982-3.74995-.0368-3.74989-.3.00007-.26325 1.75235-7.09364 3.89398-15.17864 2.14161-8.085 3.89656-15.0375 3.89988-15.45.005-.56293-1.99676-.75-8.024-.75-7.82023 0-8.03947.0353-8.3918 1.35-.19898.7425-.36548 10.0575-.36998 20.7l-.008 19.35001 4.65-.0132c3.23807-.009 5.40014-.35384 7.1205-1.13508zm107.46202-.11591c1.43628-.69529 3.27652-2.24296 4.08944-3.43928.92542-1.36188 1.47804-1.79711 1.47804-1.16408 0 1.85138 1.41401 4.14737 3.08701 5.01252 2.20317 1.13929 13.84875 1.12324 19.27487-.0266 12.13767-2.57203 21.13282-12.17284 23.81128-25.41449l1.05263-5.20394 13.7371-.3c12.52731-.27358 13.8796-.40568 15.35512-1.5 1.5785-1.17069 4.68199-6.09651 4.68199-7.43119 0-.48069-6.80994-.66881-24.21128-.66881-24.20748 0-24.21158.00022-26.24086 1.36775-5.75231 3.87648-6.44258 12.20582-1.59158 19.20537 1.03541 1.494-1.54299 6.09052-4.83495 8.61926-2.09733 1.61109-6.92636 3.2026-7.6182 2.51076-.11881-.11881 3.27438-14.36052 7.54043-31.64826 4.26604-17.28773 7.75644-31.52734 7.75644-31.64356s-3.62247-.21132-8.04992-.21132h-8.04992l-7.27799 29.55c-4.00289 16.2525-7.54583 30.5625-7.8732 31.80001l-.59523 2.25-18.12687-.009c-13.3459-.007-18.51987-.20769-19.61691-.76276-2.77922-1.40618-2.86095-3.24531-.56006-12.60078l2.0973-8.52762 4.70079-.17658c4.31615-.16213 4.6659-.0885 4.2744.9-.23451.59212-1.33914 3.58185-2.45473 6.64386l-2.02836 5.56727 7.90576-.16727 7.90576-.16728 1.82459-2.95295c1.55394-2.51492 1.82459-3.54494 1.82459-6.94382 0-5.33689-1.80339-8.18019-6.71941-10.59413-3.16443-1.55385-4.17041-1.72807-11.07473-1.91792-8.93666-.24573-12.90218.62593-17.72325 3.89572-5.19857 3.52583-8.12604 8.29956-9.19587 14.99544-.7679 4.80615-.33794 9.03736 1.30171 12.81018 1.45496 3.34785 3.12333 5.16661 6.21155 6.77148 4.58696 2.38374 7.69359 2.73176 24.86056 2.78497 15.56973.0483 16.6019-.0174 19.07196-1.21313zm-79.03252 70.86416c.495-.3199 2.385-.58162 4.2-.58162s3.705.26172 4.2.58162c.61968.40047-.68846.58162-4.2.58162-3.51155 0-4.81969-.18115-4.2-.58162zm12.35889-.43079c-2.41329-1.27799-8.60744-1.66918-12.32162-.77815-1.70613.40929-3.21243.63379-3.34733.49888-.1349-.1349 5.43534-5.90283 12.37833-12.81762l12.62361-12.57232-.41691 5.25-.4169 5.25h7.24434 7.24435l-.82059 2.25c-.45133 1.2375-1.90671 4.815-3.23418 7.95l-2.41357 5.7-7.38921.0956c-5.63581.0729-7.80236-.12317-9.13032-.82641zm19.69497-.91921c.45895-1.0725 1.55204-3.705 2.42908-5.85.87705-2.145 2.02319-4.9125 2.54697-6.15l.95234-2.25h8.30887 8.30888v8.1 8.1h-11.6903-11.69029zm25.42811-6.10982.18197-8.06182 3.41803-.38677c1.87991-.21272 5.228-.86389 7.44018-1.44703 3.84931-1.01469 5.27785-.82983 5.27785.68301 0 .26816 1.485 4.01474 3.3 8.32572 1.815 4.31099 3.3 8.08758 3.3 8.39243 0 .3198-4.88592.5547-11.55.55529l-11.55.001zm24.63747 5.20982c-2.34194-5.39176-7.08805-17.18134-6.95384-17.27369.0739-.0509 1.4844-.81551 3.1344-1.69921 1.65-.88371 4.61591-2.81599 6.59092-4.29396l3.59092-2.68722 9.15908 9.14478c8.78729 8.77357 10.39872 10.71013 8.10908 9.74517-.5775-.24339-2.40797-.57078-4.06771-.72753-5.22697-.49365-9.72845 2.2738-12.30661 7.56592-1.38129 2.83537-1.62097 3.03061-3.74701 3.05243-2.14312.022-2.34119-.13755-3.50923-2.82669zm7.28056 2.34002c0-.967 3.49737-5.3351 5.19664-6.49043 4.1135-2.79674 6.9498-3.20507 11.94446-1.71956 2.26117.67252 3.87444 1.80438 6.84156 4.8l3.88267 3.91997h-13.93267c-7.66296 0-13.93266-.22949-13.93266-.50998zm26.32758-4.14002c-5.50746-5.63559-7.10151-8.97633-7.19438-15.07761-.0512-3.36761.21617-4.70483 1.35144-6.7574 2.08067-3.76185 5.77043-6.33558 9.80563-6.83974 3.79453-.47409 3.5392-.53452 11.10973 2.62921 3.135 1.31012 7.995 3.33374 10.8 4.49693s7.395 3.09227 10.2 4.28685 7.20664 2.9935 9.78142 3.99759c4.82933 1.88331 5.5466 2.91136 2.47371 3.54556-4.81677.99413-11.29965 6.09041-14.35513 11.28477l-1.8 3.06002-13.81408.0119-13.81408.0119-4.54426-4.65zm34.27242 4.30811c0-.87908 3.75542-5.64854 6.27967-7.97531 3.10879-2.86559 6.42087-4.53444 10.87491-5.47952 2.82929-.60032 3.22929-.50459 10.14542 2.42813 3.96 1.67919 8.1616 3.40914 9.3369 3.84432 1.17529.43517 3.4379 1.3839 5.02802 2.10829 2.60582 1.18709 2.9825 1.22569 3.81702.39117.83451-.83451.78241-.98294-.52803-1.50408-.79965-.31801-4.42391-1.83491-8.05391-3.37089s-7.97354-3.28222-9.65231-3.88053c-6.42055-2.28827-7.50513-3.27475-10.91655-9.92919-2.76483-5.39317-3.49245-11.16894-2.28692-18.15348 1.14399-6.62802 3.25896-10.75979 7.57357-14.79561 4.93723-4.6182 6.83332-5.14141 18.63195-5.14141h10.15026v24.19311c0 26.9634-.0763 27.57717-3.99986 32.16092-1.17409 1.37167-3.44547 3.15815-5.04748 3.96996l-2.91277 1.47601h-19.21995c-10.57097 0-19.21994-.15385-19.21994-.34189zm-155.49563-7.76707c.19886-3.93792.0251-4.92303-1.37203-7.77865-2.76532-5.65211-8.51436-9.58386-15.78234-10.79347-1.4025-.23342-2.55-.64706-2.55-.91921 0-.27214 1.9575-1.23212 4.35-2.13328s4.62-1.83106 4.95-2.06643c.33-.23538 2.625-1.18038 5.1-2.1 2.475-.91963 4.77-1.86743 5.1-2.10622.33-.2388 2.085-.99328 3.9-1.67662s5.595-2.22051 8.4-3.41593c2.805-1.19543 6.855-2.8463 9-3.6686 2.145-.82231 4.67907-1.89448 5.63126-2.38261.9522-.48812 1.86189-.75687 2.02154-.59722s-.0119 3.68318-.38127 7.83007c-.36934 4.14688-.67153 7.93395-.67153 8.41569 0 .88348-26.58614 27.90144-27.4555 27.90144-.2573 0-.36536-2.02903-.24013-4.50896zm104.36092-13.34104-8.81971-8.85 2.82721-3.00365c1.55497-1.65201 4.05385-4.45981 5.55308-6.23955l2.72587-3.23591 3.4108 1.27615c1.87594.70188 3.8893 1.54639 4.47413 1.87671.58483.33031 3.29083 1.43597 6.01333 2.45702 2.7225 1.02104 4.95 2.08768 4.95 2.3703s-1.4877.8227-3.306 1.20017c-6.13029 1.27265-9.27825 5.55816-9.25449 12.59876.007 2.145.37449 4.9125.81612 6.15.57882 1.62192.61124 2.25.11616 2.25-.37774 0-4.65566-3.9825-9.5065-8.85zm63.13471 1.35521c-2.475-1.08212-5.985-2.5777-7.8-3.3235-1.815-.74581-4.785-1.9751-6.6-2.73175-1.815-.75666-6.675-2.76863-10.8-4.47105-11.77134-4.85814-13.39496-5.7248-15.40067-8.22064-3.36294-4.18473-4.39933-6.71786-4.39933-10.75274 0-3.25593.23977-4.03143 1.9506-6.30889 1.22797-1.63468 3.17292-3.20078 5.25-4.22738l3.2994-1.63075 23.55-.0193c12.9525-.0106 23.55.19311 23.55.45267 0 .25955-1.30653 1.44734-2.9034 2.63951-5.66892 4.23224-9.09671 11.37364-9.56133 19.91988-.35044 6.44613.47682 10.60553 3.22852 16.23267 1.11991 2.29019 2.03621 4.24769 2.03621 4.35 0 .37029-.97817.0245-5.4-1.90878zm-188.4-10.73175c0-.45459.36905-1.13282.82012-1.50717s1.29572-2.19268 1.877-4.04073c1.26091-4.00878.97441-8.43439-.80669-12.46086-1.48189-3.35006-6.073-8.35228-9.51979-10.37223-1.41386-.82858-2.57064-1.75084-2.57064-2.04949 0-.3169 12.7706-.54298 30.67096-.54298h30.67097l-.40979 5.25c-.48769 6.24802-.69243 6.49303-7.32942 8.77113-2.58649.88779-5.13361 1.85252-5.66024 2.14384s-4.71163 2.05768-9.3 3.92523c-4.58837 1.86756-9.44023 3.91626-10.78192 4.55268-1.34169.63641-2.6334 1.15712-2.87048 1.15712s-3.57043 1.35-7.40746 3c-3.83701 1.65-7.0678 3-7.17951 3-.11172 0-.20311-.37194-.20311-.82654zm144.9-7.33398c-.99-.44464-4.97791-2.12419-8.86202-3.73233l-7.06201-2.9239 6.69906-8.49163 6.69906-8.49162h3.81295c3.98852 0 4.79499.55993 2.38681 1.65717-7.3249 3.33745-8.96702 12.06763-3.59393 19.10677 2.43969 3.19617 2.41743 3.99717-.0799 2.87554zm-47.1-8.48738c0-3.36616 1.30019-14.23611 1.76142-14.72589.24538-.26058 2.94121-.39558 5.99074-.3l5.54458.17379-5.82391 7.5c-7.72483 9.94801-7.47283 9.70008-7.47283 7.3521zm7.51162-76.95211c.16804-1.485.98817-9.574 1.82251-17.97556s1.59962-15.35819 1.7006-15.45918c.101-.10098 1.69279-.5767 3.53733-1.05714 1.84453-.48044 4.73393-1.72279 6.42086-2.76078 1.68694-1.03798 3.18504-1.76938 3.32909-1.62532.14406.14405-.6998 2.53804-1.87525 5.31995-1.17545 2.78192-2.50208 6.00303-2.94808 7.15803s-2.07967 5.07-3.63039 8.7c-1.55073 3.63-3.43855 8.22-4.19517 10.2-.75661 1.98-2.07122 5.085-2.92134 6.9l-1.54568 3.3zm-51.54598-11.4c-1.6071-3.795-3.99819-9.6-5.31354-12.9s-2.63017-6.2565-2.92182-6.57c-.64369-.6919-.71261-2.92344-.0803-2.59937 4.03231 2.06656 7.04973 3.12381 9.75 3.41623l3.3.35736-.18833 5.09789c-.10358 2.80384-.51136 8.47289-.90619 12.59789l-.71786 7.5-2.92198-6.9zm109.79855 4.45093c-.58433-1.52273-.41377-7.54162.28765-10.15093.49592-1.84483 2.17506-3.94333 7.25902-9.07192l6.61386-6.67193 2.78763.73624c1.68551.44515 2.71814 1.03795 2.61184 1.49935-.16676.72384-18.6172 24.60826-19.00959 24.60826-.10242 0-.35011-.42708-.55041-.94907zm59.10382-2.69322c-3.58235-2.27252-13.26801-11.5634-13.26801-12.72721 0-.28866 1.58253-2.46153 3.51675-4.82862 6.0434-7.39589 10.08741-14.29068 12.72434-21.69426 1.06418-2.98783 1.07152-2.86056 1.11506 19.34238.0241 12.2925-.0236 22.34744-.10615 22.3443-.0825-.003-1.8744-1.0996-3.98199-2.43659zm-170.49768-22.36097c-6.33261-1.74032-9.97583-5.53194-12.19984-12.69678-.20486-.66-1.70612-4.305-3.33613-8.1l-2.96364-6.9 13.55315-.16149c7.45423-.0888 13.69618-.0185 13.871.15636.17482.17482-.20251 6.5925-.83851 14.2615l-1.15636 13.94363-2.1.12347c-1.155.0679-3.32835-.2141-4.82967-.62669zm57.03042-5.34678c.00042-1.0725.69879-8.7 1.55195-16.95 1.44342-13.95783 1.59452-20.99316.52907-24.63417-.35298-1.20622-.19983-1.22841 6.76373-.98014 7.59223.27069 13.21461-.72523 19.63789-3.47857 1.58755-.6805 3.02895-1.09478 3.20311-.92061.17417.17416-2.46401 6.99845-5.86263 15.16508-3.39861 8.16663-7.281 17.49483-8.62753 20.72934-2.78056 6.67919-5.13999 9.14202-11.11126 11.5982-4.87869 2.00676-6.08527 1.90183-6.08433-.52913zm42.7495-36c-2.10486-2.25713-5.39718-8.58795-6.04449-11.62299-.67939-3.18543-.86253-2.56436 4.6671-15.82701 1.71984-4.125 3.56776-8.6475 4.10648-10.05l.9795-2.55h29.45277 29.45277l3.12424 1.55688c1.71834.85628 4.06279 2.70224 5.2099 4.10214 3.49619 4.26664 3.90362 6.27715 3.88408 19.16642l-.0174 11.47456-2.22868-4.2c-4.2821-8.06969-13.16524-15.1953-22.28914-17.87922-4.89329-1.43943-16.15687-1.71162-21.04738-.50862-4.5429 1.1175-11.1487 4.41672-14.71946 7.35153-5.93395 4.87714-10.95762 12.44968-11.99857 18.08631-.48297 2.61522-.82037 2.73516-2.53172.9zm-40.47496-8.73857c-1.03113-.26112-2.32346-1.46963-3.53735-3.30794-2.16715-3.28193-6.72786-6.95875-10.94611-8.82468-1.56941-.69422-5.12106-1.57144-7.89257-1.94936l-5.03908-.68714-.18009-8.27212-.18009-8.27213 34.65.00096c19.0575.00053 34.65.18464 34.65.40913 0 .41684-6.70571 16.77551-9.00018 21.95607-1.5156 3.42199-4.04289 5.26041-10.28738 7.48334-3.79837 1.35215-5.5397 1.59194-12.51244 1.72302-4.455.0838-8.83112-.0329-9.72471-.25915zm-94.4322-17.96143c-.84797-1.8975-1.95411-4.53-2.45809-5.85-.95971-2.51365-2.56295-6.28127-2.99999-7.05-.14071-.2475 15.4201-.45 34.57957-.45h34.83542v8.4 8.4h-31.20757-31.20757z" fill="#cb0e05"/><path d="m122.50845 682.97593c-2.24993-1.10996-3.22976-3.05145-3.22976-6.39963 0-1.37123 2.22451-11.07853 4.94337-21.57177l4.94337-19.07862h9.49706c8.76394 0 9.47292.0811 9.18437 1.05-.17199.5775-2.23021 8.34-4.57384 17.25-2.34362 8.91-4.40303 16.68425-4.57646 17.27612-.2869.97913.10125 1.06024 4.30714.9l4.62246-.17612 4.48461-18.15 4.48461-18.15h9.24165c5.08291 0 9.24166.2363 9.24166.52512 0 .28881-1.89 8.26839-4.2 17.7324s-4.2 17.46271-4.2 17.77488c0 .31218 1.99874.5676 4.44165.5676h4.44165l4.48575-18.15 4.48575-18.15 9.41794-.16547c8.78261-.1543 9.39663-.0936 9.10202.9-.17376.58601-2.22802 9.03047-4.56503 18.76547s-4.77562 18.78818-5.41914 20.11818c-1.48483 3.06884-5.09253 6.52353-7.73013 7.4023-1.30501.4348-7.5388.67952-17.30932.67952-17.29993 0-18.72432-.28137-20.05509-3.96153l-.73803-2.04098-1.66712 1.82527c-3.00755 3.29284-5.90019 4.15095-13.9909 4.1504-5.26694-.00035-7.70213-.2482-9.07024-.92314zm100.87024.0581c-4.66038-1.03105-6.70111-1.832-9.40248-3.69034-5.74923-3.95503-8.31626-12.82764-6.49293-22.44201 1.92539-10.15255 9.97842-18.27552 20.22756-20.40322 4.85459-1.00782 18.21814-.43928 22.01143.93645 1.70565.61859 4.1372 2.22901 5.78175 3.82927 2.27545 2.21415 2.96843 3.38174 3.4952 5.88895 1.0849 5.16372-.59081 11.0784-4.01718 14.17922-.97886.88586-2.29686 1.00449-9.56035.86052l-8.42497-.16698 2.25341-6c3.70488-9.86477 4.015-8.77404-2.43753-8.57315l-5.56164.17315-2.2699 9c-1.24845 4.95-2.27721 9.72744-2.28614 10.61654-.009.8891.63522 2.3741 1.43145 3.3l1.44767 1.68346h22.37542 22.37541l5.99506-24.45 5.99506-24.45h9.25685 9.25685l-.34265 1.65c-.18845.9075-2.88287 11.9775-5.9876 24.6l-5.64496 22.95 1.56261-.004c4.91718-.0106 10.31765-3.77711 12.9972-9.06495 1.21637-2.40037 1.30137-2.9209.57539-3.52341-.4685-.38882-1.5399-2.08776-2.38091-3.77542-2.60596-5.2295-1.91567-12.03466 1.6609-16.37366 3.03859-3.68608 3.9834-3.85896 21.09074-3.85896 8.42561 0 15.31928.14627 15.31928.32504s-1.215 2.40063-2.7 4.93746c-1.485 2.53682-2.7 4.95555-2.7 5.37495 0 .55096-1.29026.76311-4.65.76456l-4.65.002-1.01965 5.24799c-3.22346 16.59079-13.27052 27.19229-28.80506 30.39464-5.64018 1.16268-18.69618 1.28467-20.81745.1945-2.13979-1.09968-3.70321-3.52803-4.07999-6.33717l-.33427-2.49213-1.19118 2.40758c-1.4542 2.9392-4.5446 5.57856-7.60577 6.49571-3.3573 1.00587-37.01887.83896-41.74663-.207zm214.2 0c-4.66038-1.03105-6.70111-1.832-9.40248-3.69034-5.74923-3.95503-8.31626-12.82764-6.49293-22.44201 1.92539-10.15255 9.97842-18.27552 20.22756-20.40322 4.85459-1.00782 18.21814-.43928 22.01143.93645 1.70565.61859 4.1372 2.22901 5.78175 3.82927 2.27545 2.21415 2.96843 3.38174 3.4952 5.88895 1.0849 5.16372-.59081 11.0784-4.01718 14.17922-.97886.88586-2.29686 1.00449-9.56035.86052l-8.42497-.16698 2.25341-6c3.70488-9.86477 4.015-8.77404-2.43753-8.57315l-5.56164.17315-2.2699 9c-1.24845 4.95-2.27721 9.72744-2.28614 10.61654-.009.8891.63514 2.3741 1.43128 3.3l1.4475 1.68346 22.20008.17096 22.20008.17096-.84758-2.81632c-.99518-3.3067-1.09107-8.37794-.243-12.84981 1.92539-10.15255 9.97842-18.27552 20.22756-20.40322 4.85459-1.00782 18.21814-.43928 22.01143.93645 1.70565.61859 4.1372 2.22901 5.78175 3.82927 2.27545 2.21415 2.96843 3.38174 3.4952 5.88895 1.0849 5.16372-.59081 11.0784-4.01718 14.17922-.97886.88586-2.29686 1.00449-9.56035.86052l-8.42497-.16698 2.25341-6c3.70488-9.86477 4.015-8.77404-2.43753-8.57315l-5.56164.17315-2.2699 9c-1.24845 4.95-2.27721 9.72744-2.28614 10.61654-.009.8891.63514 2.3741 1.43128 3.3l1.4475 1.68346 22.3122.17129 22.31219.17129-.40647 1.62871c-.98934 3.96421-4.52963 7.66547-8.65247 9.04585-3.15145 1.05514-36.43525.90048-41.59648-.1933-6.89442-1.46108-11.02336-3.89363-13.71626-8.08088l-.93704-1.45704-1.35922 2.80776c-1.59555 3.29597-4.60154 5.96173-7.80483 6.92146-3.3573 1.00587-37.01887.83896-41.74663-.207z" fill="#020202"/></g></svg>