<?xml version="1.0" encoding="UTF-8"?>
<svg width="30px" height="31px" viewBox="0 0 30 31" version="1.1" xmlns="http://www.w3.org/2000/svg" xmlns:xlink="http://www.w3.org/1999/xlink">
    <!-- Generator: Sketch 53.1 (72631) - https://sketchapp.com -->
    <title>Instagram</title>
    <desc>Created with Sketch.</desc>
    <g id="Page-1" stroke="none" stroke-width="1" fill="none" fill-rule="evenodd">
        <g id="Seriale---Home" transform="translate(-1351.000000, -5756.000000)" fill="#FFFFFF">
            <g id="footer" transform="translate(0.000000, 5670.199524)">
                <g id="social-icons" transform="translate(1233.700000, 84.250000)">
                    <path d="M143.416357,2.26515609 L121.058757,2.26515609 C119.133157,2.26515609 117.572357,3.82195609 117.572357,5.74355609 L117.572357,28.1171561 C117.572357,30.0379561 119.133157,31.5955561 121.058757,31.5955561 L143.416357,31.5955561 C145.341957,31.5955561 146.902757,30.0379561 146.902757,28.1171561 L146.902757,5.74355609 C146.902757,3.82195609 145.341957,2.26515609 143.416357,2.26515609 L143.416357,2.26515609 Z M138.653957,6.84755609 C138.653957,6.34195609 139.064357,5.93155609 139.569957,5.93155609 L142.319557,5.93155609 C142.825957,5.93155609 143.236357,6.34195609 143.236357,6.84755609 L143.236357,9.59795609 C143.236357,10.1035561 142.825957,10.5139561 142.319557,10.5139561 L139.569957,10.5139561 C139.064357,10.5139561 138.653957,10.1035561 138.653957,9.59795609 L138.653957,6.84755609 L138.653957,6.84755609 Z M132.271557,11.3371561 C135.386757,11.3371561 137.912357,13.8571561 137.912357,16.9643561 C137.912357,20.0723561 135.386757,22.5915561 132.271557,22.5915561 C129.157157,22.5915561 126.631557,20.0723561 126.631557,16.9643561 C126.631557,13.8571561 129.157157,11.3371561 132.271557,11.3371561 L132.271557,11.3371561 Z M144.153157,27.9291561 C144.153157,28.4347561 143.742757,28.8459561 143.236357,28.8459561 L121.238757,28.8459561 C120.732357,28.8459561 120.321957,28.4347561 120.321957,27.9291561 L120.321957,14.1803561 L123.988357,14.1803561 C123.510757,14.8675561 123.349157,16.1499561 123.349157,16.9643561 C123.349157,21.8723561 127.352357,25.8659561 132.271557,25.8659561 C137.191557,25.8659561 141.194757,21.8723561 141.194757,16.9643561 C141.194757,16.1499561 141.078757,14.8875561 140.486757,14.1803561 L144.153157,14.1803561 L144.153157,27.9291561 L144.153157,27.9291561 Z" id="Instagram"></path>
                </g>
            </g>
        </g>
    </g>
</svg>