<?xml version="1.0" encoding="UTF-8"?>
<svg width="30px" height="26px" viewBox="0 0 30 26" version="1.1" xmlns="http://www.w3.org/2000/svg" xmlns:xlink="http://www.w3.org/1999/xlink">
    <!-- Generator: Sketch 53.1 (72631) - https://sketchapp.com -->
    <title>Vimeo</title>
    <desc>Created with Sketch.</desc>
    <g id="Page-1" stroke="none" stroke-width="1" fill="none" fill-rule="evenodd">
        <g id="Seriale---Home" transform="translate(-1410.000000, -5759.000000)" fill="#FFFFFF">
            <g id="footer" transform="translate(0.000000, 5670.199524)">
                <g id="social-icons" transform="translate(1233.700000, 84.250000)">
                    <path d="M193.393157,11.3699561 C194.136357,11.0627561 194.860357,10.9155561 195.562757,10.9155561 C197.052357,10.9155561 197.709157,11.7347561 197.533157,13.3835561 C197.443557,14.3835561 196.789957,15.8339561 195.562757,17.7443561 C194.334757,19.6507561 193.413957,20.6027561 192.801957,20.6027561 C192.012357,20.6027561 191.291557,19.1315561 190.633157,16.1827561 C190.413957,15.3155561 190.017157,13.1035561 189.453957,9.54515609 C188.924357,6.24995609 187.521157,4.70835609 185.245157,4.92675609 C184.279557,5.01715609 182.833157,5.88275609 180.908357,7.53155609 C179.503557,8.78755609 178.079557,10.0467561 176.634757,11.3011561 L178.013957,13.0611561 C179.330757,12.1475561 180.094757,11.6923561 180.313957,11.6923561 C181.320357,11.6923561 182.261957,13.2539561 183.141157,16.3787561 C183.930757,19.2355561 184.717157,22.1011561 185.509157,24.9667561 C186.689957,28.0899561 188.136357,29.6467561 189.843557,29.6467561 C192.603557,29.6467561 195.981157,27.0883561 199.967557,21.9683561 C203.819557,17.0715561 205.816357,13.2131561 205.943557,10.3899561 C206.121157,6.62035609 204.695557,4.68755609 201.676357,4.60435609 C197.600357,4.47315609 194.841957,6.72915609 193.393157,11.3699561 Z" id="Vimeo"></path>
                </g>
            </g>
        </g>
    </g>
</svg>