<?xml version="1.0" encoding="UTF-8"?>
<svg width="31px" height="26px" viewBox="0 0 31 26" version="1.1" xmlns="http://www.w3.org/2000/svg" xmlns:xlink="http://www.w3.org/1999/xlink">
    <!-- Generator: Sketch 53.1 (72631) - https://sketchapp.com -->
    <title>Twitter</title>
    <desc>Created with Sketch.</desc>
    <g id="Page-1" stroke="none" stroke-width="1" fill="none" fill-rule="evenodd">
        <g id="Seriale---Home" transform="translate(-1291.000000, -5758.000000)" fill="#FFFFFF">
            <g id="footer" transform="translate(0.000000, 5670.199524)">
                <g id="social-icons" transform="translate(1233.700000, 84.250000)">
                    <path d="M87.2595573,4.81715609 C86.0707573,5.53875609 84.7571573,6.06355609 83.3531573,6.34435609 C82.2347573,5.12035609 80.6363573,4.35555609 78.8667573,4.35555609 C75.4747573,4.35555609 72.7219573,7.17795609 72.7219573,10.6587561 C72.7219573,11.1531561 72.7747573,11.6323561 72.8803573,12.0939561 C67.7715573,11.8307561 63.2427573,9.32435609 60.2091573,5.50595609 C59.6795573,6.44035609 59.3771573,7.52435609 59.3771573,8.67875609 C59.3771573,10.8643561 60.4619573,12.7939561 62.1123573,13.9243561 C61.1059573,13.8939561 60.1563573,13.6075561 59.3259573,13.1387561 L59.3259573,13.2155561 C59.3259573,16.2707561 61.4451573,18.8195561 64.2595573,19.3963561 C63.7443573,19.5443561 63.2003573,19.6187561 62.6395573,19.6187561 C62.2435573,19.6187561 61.8571573,19.5803561 61.4827573,19.5067561 C62.2651573,22.0099561 64.5339573,23.8331561 67.2243573,23.8819561 C65.1211573,25.5731561 62.4691573,26.5811561 59.5899573,26.5811561 C59.0939573,26.5811561 58.6035573,26.5523561 58.1235573,26.4947561 C60.8435573,28.2803561 64.0763573,29.3243561 67.5467573,29.3243561 C78.8547573,29.3243561 85.0363573,19.7211561 85.0363573,11.3907561 C85.0363573,11.1163561 85.0315573,10.8427561 85.0211573,10.5739561 C86.2219573,9.68515609 87.2651573,8.57555609 88.0859573,7.31155609 C86.9851573,7.81235609 85.7995573,8.15155609 84.5563573,8.30355609 C85.8259573,7.52435609 86.8003573,6.28915609 87.2595573,4.81715609" id="Twitter"></path>
                </g>
            </g>
        </g>
    </g>
</svg>