<?xml version="1.0" encoding="UTF-8"?>
<svg width="30px" height="21px" viewBox="0 0 30 21" version="1.1" xmlns="http://www.w3.org/2000/svg" xmlns:xlink="http://www.w3.org/1999/xlink">
    <g id="Page-1" stroke="none" stroke-width="1" fill="none" fill-rule="evenodd">
        <g id="YouTube_icon_F7801" fill-rule="nonzero">
            <path d="M29.3524101,3.2754175 C29.0095685,1.98470513 28.0000902,0.963693849 26.7049105,0.616935302 C24.3621589,0.000475663302 14.9911528,0.000475663302 14.9911528,0.000475663302 C14.9911528,0.000475663302 5.79156758,-0.0380530641 3.44881606,0.578406575 C2.15363635,0.925165122 0.91559693,1.98470513 0.572755243,3.2754175 C-0.0557878484,5.62566987 0.00135243269,10.4995539 0.00135243269,10.4995539 C0.00135243269,10.4995539 -0.0557878484,15.3734379 0.572755243,17.7236903 C0.91559693,19.0144027 2.17268311,20.0739427 3.44881606,20.4207012 C5.79156758,21.0564252 14.9911528,20.9986321 14.9911528,20.9986321 C14.9911528,20.9986321 24.1907381,21.0371608 26.5334896,20.4207012 C27.8286693,20.0739427 29.0286152,19.0144027 29.3714569,17.7236903 C30,15.3927023 30,10.4995539 30,10.4995539 C30,10.4995539 29.9809532,5.62566987 29.3524101,3.2754175 Z" id="XMLID_142_" fill="currentColor"></path>
            <polygon id="XMLID_824_" fill="#FFFFFF" points="12 15 19 10.5 12 6"></polygon>
        </g>
    </g>
</svg>