<?xml version="1.0" encoding="UTF-8"?>
<svg width="424px" height="146px" viewBox="0 0 424 146" version="1.1" xmlns="http://www.w3.org/2000/svg" xmlns:xlink="http://www.w3.org/1999/xlink">
    <g id="Page-1" stroke="none" stroke-width="1" fill="none" fill-rule="evenodd">
        <g id="Twitch-logo" fill="currentColor">
            <path d="M414.478,114.118 L387.15,114.118 L387.15,59.461 L364.376,59.461 L364.376,114.118 L337.048,114.118 L337.048,9.359 L364.376,9.359 L364.376,32.133 L396.259,32.133 L414.478,50.352 L414.478,114.118 Z M327.938,59.461 L296.056,59.461 L296.056,86.789 L327.938,86.789 L327.938,114.118 L286.946,114.118 L268.727,95.899 L268.727,50.352 L286.946,32.133 L327.938,32.133 L327.938,59.461 Z M259.618,59.461 L236.844,59.461 L236.844,86.789 L259.618,86.789 L259.618,114.118 L227.735,114.118 L209.516,95.899 L209.516,9.359 L236.844,9.359 L236.844,32.133 L259.618,32.133 L259.618,59.461 Z M173.079,23.023 L200.407,23.023 L200.407,9.359 L173.079,9.359 L173.079,23.023 Z M173.079,114.118 L200.407,114.118 L200.407,32.133 L173.079,32.133 L173.079,114.118 Z M163.969,98.176 L148.028,114.118 L68.321,114.118 L68.321,32.133 L95.649,32.133 L95.649,86.789 L104.758,86.789 L104.758,32.133 L132.086,32.133 L132.086,86.789 L141.196,86.789 L141.196,32.133 L163.969,32.133 L163.969,98.176 Z M59.211,59.461 L36.438,59.461 L36.438,86.789 L59.211,86.789 L59.211,114.118 L27.328,114.118 L9.109,95.899 L9.109,9.359 L36.438,9.359 L36.438,32.133 L59.211,32.133 L59.211,59.461 Z M400.814,23.024 L373.486,23.024 L373.486,0.25 L332.493,0.25 L305.165,23.024 L280.114,23.024 L268.727,34.41 L268.727,23.024 L245.954,23.024 L245.954,0.25 L163.969,0.25 L163.969,23.024 L72.875,23.024 L50.102,0.25 L0,0.25 L0,100.453 L22.773,124.366 L63.766,146 L91.094,146 L91.094,139.168 L104.758,146 L159.415,146 L168.524,132.336 L173.079,146 L204.962,146 L204.962,132.336 L218.626,146 L255.063,146 L257.341,132.336 L268.727,146 L314.274,146 L327.938,132.336 L327.938,146 L346.157,146 L359.821,132.336 L359.821,146 L391.704,146 L423.587,118.672 L423.587,45.797 L400.814,23.024 L400.814,23.024 Z" id="Fill-1"></path>
        </g>
    </g>
</svg>