<?xml version="1.0" standalone="no"?>
<!DOCTYPE svg PUBLIC "-//W3C//DTD SVG 20010904//EN"
 "http://www.w3.org/TR/2001/REC-SVG-20010904/DTD/svg10.dtd">
<svg version="1.0" xmlns="http://www.w3.org/2000/svg"
 width="96.000000pt" height="96.000000pt" viewBox="0 0 96.000000 96.000000"
 preserveAspectRatio="xMidYMid meet">
<metadata>
Created by potrace 1.11, written by Peter Selinger 2001-2013
</metadata>
<g transform="translate(0.000000,96.000000) scale(0.100000,-0.100000)"
fill="#000000" stroke="none">
<path d="M420 952 c-32 -5 -130 -32 -130 -37 0 -2 9 -24 20 -50 26 -60 26 -62
-10 -80 -36 -19 -110 -92 -110 -109 0 -7 11 -19 25 -26 23 -12 27 -11 65 28
22 22 50 44 61 47 21 7 22 25 4 67 -5 13 2 19 37 29 23 7 69 12 100 12 l57 0
7 41 c3 22 8 49 10 59 2 12 -4 17 -24 18 -15 1 -40 2 -57 3 -16 1 -41 0 -55
-2z"/>
<path d="M536 814 c-3 -9 -6 -24 -6 -35 0 -14 -7 -19 -27 -18 -16 1 -40 1 -54
0 -26 -1 -26 -2 -18 -48 7 -37 6 -50 -5 -58 -12 -9 -11 -16 1 -48 20 -49 37
-49 28 1 -4 20 -7 41 -8 47 -1 5 13 8 31 6 17 -1 32 1 33 6 0 4 3 19 6 33 2
14 6 30 7 37 1 7 4 15 7 18 9 9 71 -16 115 -46 l41 -28 26 25 26 24 32 -47
c18 -25 40 -71 49 -102 l18 -56 43 -1 c76 -2 79 0 64 61 -15 65 -55 147 -96
195 l-29 35 -35 -37 c-19 -21 -39 -38 -45 -38 -5 0 -29 14 -54 30 -39 27 -115
60 -136 60 -4 0 -11 -7 -14 -16z"/>
<path d="M580 575 c-34 -35 -34 -35 -14 -55 17 -17 24 -18 57 -9 20 5 37 15
37 21 0 10 -38 78 -44 78 -1 0 -17 -16 -36 -35z"/>
<path d="M305 525 l-16 -54 -45 5 c-43 4 -44 3 -44 -24 0 -36 19 -92 31 -92 4
0 24 8 44 17 34 16 35 18 29 59 l-6 41 36 -2 c44 -2 53 3 61 36 6 23 2 29 -34
47 l-41 21 -15 -54z"/>
<path d="M6 531 c-10 -16 -3 -81 9 -82 14 -1 67 2 90 5 20 3 29 44 15 66 -10
16 -106 25 -114 11z"/>
<path d="M692 529 c-29 -9 -32 -13 -27 -39 3 -16 1 -40 -5 -55 -9 -24 -7 -27
37 -46 35 -15 48 -17 54 -8 12 20 21 98 14 129 -7 32 -17 35 -73 19z"/>
<path d="M556 423 c-5 -11 3 -27 24 -47 l31 -31 20 24 c26 31 25 35 -16 54
-44 21 -51 21 -59 0z"/>
<path d="M396 365 c-28 -36 -24 -45 29 -62 29 -10 30 -12 27 -61 l-3 -51 46 4
c26 2 49 6 51 8 5 5 -36 170 -44 178 -4 4 -24 9 -44 12 -33 5 -39 2 -62 -28z"/>
<path d="M793 308 c-17 -29 -39 -61 -50 -70 -19 -17 -21 -17 -43 7 l-23 24
-28 -20 c-15 -11 -44 -26 -64 -34 -30 -13 -35 -19 -31 -42 3 -14 9 -30 14 -35
8 -8 85 27 139 62 20 13 24 11 61 -28 l40 -42 30 35 c34 38 76 108 87 142 5
19 1 25 -22 34 -71 27 -78 25 -110 -33z"/>
<path d="M187 334 l-27 -15 29 -43 c17 -24 45 -56 63 -71 l32 -27 23 28 23 29
-34 30 c-19 17 -42 42 -51 58 -20 31 -21 31 -58 11z"/>
<path d="M260 134 c-17 -23 -30 -47 -30 -52 0 -13 78 -50 140 -66 64 -16 67
-14 72 58 3 48 2 49 -27 53 -16 2 -51 15 -78 27 l-48 23 -29 -43z"/>
</g>
</svg>
