<svg height="173.09871mm" viewBox="0 0 613.3419 613.34187" width="173.09871mm" xmlns="http://www.w3.org/2000/svg" xmlns:xlink="http://www.w3.org/1999/xlink"><clipPath id="a"><path d="m0 841.89h595.28v-841.89h-595.28z"/></clipPath><g clip-path="url(#a)" transform="matrix(1.25 0 0 -1.25 -76.01675 826.61408)"><path d="m0 0c0-67.238-80.053-121.741-178.802-121.741-98.74 0-178.794 54.503-178.794 121.741 0 67.234 80.054 121.739 178.794 121.739 98.749 0 178.802-54.505 178.802-121.739z" fill="none" stroke="#1b181a" stroke-miterlimit="10" stroke-width="4" transform="translate(487.9352 415.6044)"/><path d="m0 0v-10.923h6.094c2.353 0 4.128.454 5.319 1.367 1.195.911 1.787 2.338 1.787 4.284 0 1.809-.606 3.139-1.824 3.992-1.219.853-3.075 1.28-5.561 1.28zm0 2.872h5.594c2.395 0 4.119.378 5.168 1.129 1.054.753 1.579 2.02 1.579 3.805 0 1.637-.584 2.82-1.755 3.544-1.172.725-3.034 1.087-5.592 1.087h-4.994zm-3.393 12.502h8.247c3.872 0 6.677-.577 8.405-1.737 1.733-1.157 2.598-2.989 2.598-5.493 0-1.734-.481-3.157-1.449-4.281-.963-1.126-2.375-1.854-4.225-2.189v-.197c4.436-.76 6.645-3.09 6.645-6.989 0-2.609-.876-4.646-2.64-6.107-1.763-1.469-4.228-2.201-7.396-2.201h-10.185z" fill="#1b181a" transform="translate(155.1005 414.7954)"/><path d="m178.205 430.169h3.396v-29.194h-3.396z" fill="#1b181a"/><path d="m0 0v29.194h3.393v-26.12h12.879v-3.074z" fill="#1b181a" transform="translate(189.6078 400.9753)"/><path d="m0 0v-10.923h6.09c2.356 0 4.129.454 5.319 1.367 1.196.911 1.79 2.338 1.79 4.284 0 1.809-.608 3.139-1.826 3.992-1.219.853-3.072 1.28-5.56 1.28zm0 2.872h5.591c2.396 0 4.12.378 5.17 1.129 1.054.753 1.58 2.02 1.58 3.805 0 1.637-.585 2.82-1.758 3.544-1.171.725-3.033 1.087-5.592 1.087h-4.991zm-3.393 12.502h8.245c3.873 0 6.678-.577 8.407-1.737 1.731-1.157 2.597-2.989 2.597-5.493 0-1.734-.483-3.157-1.449-4.281-.961-1.126-2.372-1.854-4.224-2.189v-.197c4.438-.76 6.648-3.09 6.648-6.989 0-2.609-.88-4.646-2.644-6.107-1.765-1.469-4.23-2.201-7.397-2.201h-10.183z" fill="#1b181a" transform="translate(214.2262 414.7954)"/><path d="m0 0-3.396 9.045c-.437 1.145-.894 2.548-1.357 4.213-.293-1.28-.713-2.681-1.256-4.213l-3.437-9.045zm4.693-12.342-3.637 9.286h-11.699l-3.595-9.286h-3.435l11.545 29.314h2.85l11.483-29.314z" fill="#1b181a" transform="translate(250.9878 413.3162)"/><path d="m0 0c0-3.951.84-6.951 2.524-8.996 1.683-2.04 4.129-3.064 7.338-3.064 3.234 0 5.676 1.018 7.327 3.055 1.651 2.038 2.476 5.038 2.476 9.005 0 3.928-.822 6.907-2.466 8.936-1.643 2.029-4.075 3.043-7.296 3.043-3.236 0-5.696-1.021-7.379-3.063-1.684-2.044-2.524-5.016-2.524-8.916m23.261 0c0-4.669-1.18-8.346-3.543-11.021-2.365-2.677-5.649-4.014-9.856-4.014-4.298 0-7.617 1.314-9.957 3.943-2.334 2.63-3.498 6.341-3.498 11.132 0 4.753 1.167 8.438 3.512 11.054 2.341 2.615 5.672 3.922 9.984 3.922 4.189 0 7.468-1.33 9.822-3.99 2.356-2.667 3.536-6.338 3.536-11.026" fill="#1b181a" transform="translate(265.2859 415.6119)"/><path d="m0 0h-1.68l-6.407 22.522c-.535 1.853-.929 3.368-1.196 4.555-.215-1.157-.515-2.49-.908-3.991-.395-1.508-2.543-9.203-6.44-23.086h-1.719l-8.028 29.194h2.14l5.107-18.81c.204-.762.389-1.462.564-2.106.173-.646.327-1.253.467-1.819.141-.563.263-1.112.379-1.635.114-.526.217-1.056.311-1.588.322 1.81.998 4.558 2.032 8.245l4.991 17.713h2.262l5.845-20.326c.683-2.347 1.169-4.234 1.461-5.673.177.958.398 1.978.67 3.055.271 1.079 2.328 8.726 6.163 22.944h2.056z" fill="#1b181a" transform="translate(318.4357 400.9753)"/><path d="m0 0h-15.963v29.194h15.963v-1.876h-13.923v-11.044h13.142v-1.876h-13.142v-12.519l13.923 0z" fill="#1b181a" transform="translate(347.6125 400.9753)"/><path d="m0 0v-12.601h6.867c5.406 0 8.11 2.197 8.11 6.59 0 4.008-2.85 6.011-8.546 6.011zm0 1.797h6.431c2.742 0 4.738.454 5.982 1.365 1.24.916 1.867 2.341 1.867 4.287 0 1.94-.704 3.354-2.107 4.232-1.406.875-3.501 1.317-6.283 1.317h-5.89zm-2.036 12.999h8.007c3.61 0 6.257-.612 7.946-1.838 1.69-1.226 2.539-3.075 2.539-5.552 0-1.689-.517-3.097-1.55-4.223-1.032-1.124-2.54-1.846-4.519-2.165v-.119c2.328-.349 4.042-1.084 5.139-2.209s1.648-2.693 1.648-4.701c0-2.688-.894-4.759-2.677-6.21-1.782-1.451-4.314-2.177-7.585-2.177h-8.948z" fill="#1b181a" transform="translate(356.2544 415.3737)"/><path d="m0 0h-3.393v29.194h16.274v-3.016h-12.881v-10.684h12.103v-3.015h-12.103z" fill="#1b181a" transform="translate(383.1316 400.9753)"/><path d="m0 0h-16.272v29.194h16.272v-3.016h-12.876v-9.405h12.096v-2.994h-12.096v-10.741l12.876 0z" fill="#1b181a" transform="translate(417.1171 400.9753)"/><path d="m0 0c0-2.569-.93-4.574-2.796-6.011-1.868-1.439-4.392-2.156-7.589-2.156-3.461 0-6.122.443-7.986 1.337v3.275c1.199-.509 2.503-.907 3.915-1.199 1.409-.289 2.809-.439 4.193-.439 2.267 0 3.967.43 5.11 1.29 1.146.857 1.716 2.051 1.716 3.584 0 1.01-.2 1.837-.604 2.484-.41.647-1.086 1.24-2.039 1.787-.953.548-2.405 1.164-4.343 1.857-2.714.971-4.658 2.123-5.825 3.456-1.161 1.334-1.743 3.068-1.743 5.21 0 2.249.846 4.041 2.535 5.373 1.692 1.33 3.925 1.997 6.709 1.997 2.904 0 5.574-.531 8.007-1.599l-1.054-2.955c-2.416 1.011-4.758 1.519-7.03 1.519-1.799 0-3.205-.387-4.216-1.157-1.011-.774-1.517-1.846-1.517-3.217 0-1.011.188-1.841.556-2.488.372-.643 1.006-1.235 1.891-1.776.884-.538 2.239-1.135 4.059-1.785 3.067-1.092 5.174-2.266 6.324-3.515 1.153-1.25 1.727-2.876 1.727-4.872" fill="#1b181a" transform="translate(440.0602 408.7441)"/><path d="m0 0h-3.393v26.178h-9.245v3.016h21.882v-3.016h-9.244z" fill="#1b181a" transform="translate(455.0158 400.9753)"/><g fill="none" stroke="#1b181a" stroke-linecap="round" stroke-miterlimit="10" stroke-width="4"><path d="m0 0c3.646 0 6.602-3.081 6.602-6.882 0-3.8-2.956-6.881-6.602-6.881-3.224 0-5.934 2.395-6.517 5.576" transform="translate(246.4248 296.1023)"/><path d="m0 0c4.414 0 7.99-3.728 7.99-8.331 0-4.6-3.576-8.33-7.99-8.33s-7.993 3.73-7.993 8.33c0 1.064.2 2.099.545 3.034" transform="translate(300.2517 280.2722)"/><path d="m0 0c-2.787-4.067-7.464-6.736-12.766-6.736-8.536 0-15.458 6.922-15.458 15.46 0 5.659 3.043 10.608 7.579 13.302" transform="translate(169.3052 339.728)"/><path d="m0 0c2.962-2.816 4.809-6.793 4.809-11.203 0-8.537-6.923-15.459-15.462-15.459-3.962 0-7.578 1.493-10.316 3.948" transform="translate(470.2036 362.65)"/><path d="m0 0c-4.379 2.728-7.292 7.589-7.292 13.13 0 8.54 6.922 15.459 15.459 15.459 5.27 0 9.927-2.638 12.716-6.667.008-.015.02-.028.033-.042" transform="translate(149.4986 470.5342)"/><path d="m0 0c2.761 4.202 7.52 6.979 12.921 6.979 8.54 0 15.467-6.923 15.467-15.461 0-5.313-2.682-10.002-6.767-12.784" transform="translate(444.5659 495.1421)"/><path d="m0 0c0 9.863 7.994 17.856 17.854 17.856 9.862 0 17.858-7.993 17.858-17.856 0-2.94-.718-5.718-1.974-8.166" transform="translate(216.8967 538.8703)"/><path d="m0 0c-.872 0-1.69.217-2.408.602-1.603.859-2.693 2.549-2.693 4.496 0 2.816 2.286 5.099 5.101 5.099 2.256 0 4.165-1.466 4.839-3.494" transform="translate(189.9712 514.8355)"/><path d="m0 0s-9.497-5.226-7.464-13.43" transform="translate(247.3779 301.3212)"/><path d="m0 0s1.036 2.042 4.382-1.364c0 0 15.66-15.069 24.312-15.835" transform="translate(253.0265 289.2201)"/><path d="m0 0c.584-.084 1.179-.129 1.782-.129 3.193 0 6.117 1.206 8.375 3.201l.139.124s.73.48.787-.279" transform="translate(281.7208 272.0208)"/><path d="m0 0c.003.013.902.379 1.298-.069" transform="translate(308.0114 269.9496)"/><path d="m0 0c-3.645 0-6.603-3.081-6.603-6.882 0-3.8 2.958-6.881 6.603-6.881 3.218 0 5.932 2.395 6.514 5.576" transform="translate(370.8692 296.1023)"/><path d="m0 0c-4.412 0-7.99-3.728-7.99-8.331 0-4.6 3.578-8.33 7.99-8.33 4.414 0 7.992 3.73 7.992 8.33 0 1.064-.199 2.099-.547 3.034" transform="translate(317.0424 280.2722)"/><path d="m0 0 .032-.02c.061-.038.131-.082.208-.131 1.972-1.251 8.667-6.089 6.93-13.108" transform="translate(370.2103 301.1508)"/><path d="m0 0s-1.036 2.042-4.379-1.364c0 0-15.661-15.069-24.315-15.835" transform="translate(364.266 289.2201)"/><path d="m0 0c-.587-.084-1.179-.129-1.782-.129-3.194 0-6.119 1.206-8.377 3.201l-.14.124s-.73.48-.789-.279" transform="translate(335.5747 272.0208)"/><path d="m0 0c-.006.013-.906.379-1.3-.069" transform="translate(309.2841 269.9496)"/><path d="m0 0s0-9.556 10.545-9.529c10.549.029 11.142 9.739 11.142 9.739" transform="translate(298.1149 263.9119)"/><path d="m0 0s5.122-3.706 12.804-3.927" transform="translate(186.9418 515.833)"/><path d="m0 0c-2.176-4.494-3.902-4.292-3.902-4.292-2.311-.092-2.531-1.531-2.531-1.531s-3.869-12.109-8.771-15.761c-4.9-3.65-7.718-1.241-7.718-1.241" transform="translate(217.7456 544.3229)"/><path d="m0 0c0 9.861-7.997 17.856-17.857 17.856s-17.858-7.995-17.858-17.856c0-2.942.715-5.719 1.974-8.167" transform="translate(397.9349 539.6205)"/><path d="m0 0c.869 0 1.686.217 2.404.6 1.603.86 2.691 2.55 2.691 4.498 0 2.816-2.284 5.097-5.095 5.097-2.257 0-4.169-1.465-4.842-3.496" transform="translate(424.8603 515.5857)"/><path d="m0 0s-4.361-3.136-11.002-3.82" transform="translate(427.8883 516.5832)"/><path d="m0 0c2.179-4.495 3.903-4.292 3.903-4.292 2.311-.094 2.528-1.53 2.528-1.53s3.873-12.109 8.772-15.763c4.902-3.649 7.72-1.24 7.72-1.24" transform="translate(397.0829 545.0723)"/><path d="m0 0c-4.412 0-7.99 3.728-7.99 8.331 0 4.599 3.578 8.331 7.99 8.331 4.414 0 7.992-3.732 7.992-8.331 0-1.063-.199-2.099-.547-3.033" transform="translate(317.0424 551.6378)"/><path d="m0 0c-.636.224-1.466.758-2.523 1.834 0 0-15.659 15.067-24.309 15.834" transform="translate(362.4067 542.2209)"/><path d="m0 0c-.587.084-1.181.129-1.785.129-3.193 0-6.116-1.205-8.375-3.2l-.139-.125s-.73-.478-.789.28" transform="translate(335.5747 559.8892)"/><path d="m0 0c4.414 0 7.99 3.728 7.99 8.331 0 4.599-3.576 8.331-7.99 8.331s-7.993-3.732-7.993-8.331c0-1.063.2-2.099.545-3.033" transform="translate(300.2517 551.6378)"/><path d="m0 0s1.794-1.708 5.144 1.699c0 0 15.658 15.066 24.31 15.834" transform="translate(252.2665 542.3566)"/><path d="m0 0c.584.084 1.176.129 1.778.129 3.195 0 6.121-1.205 8.378-3.2l.137-.125s.733-.478.79.28" transform="translate(281.7208 559.8892)"/><path d="m0 0s0 9.557-10.548 9.528c-10.549-.028-11.142-9.737-11.142-9.737" transform="translate(319.1806 567.9981)"/></g><path d="m0 0-11.094 13.078 16.681-3.981 11.097-13.072zm-26.817-284.359c5.242-1.737 10.486-3.472 15.728-5.209-4.732-1.717-9.469-3.433-14.208-5.153-5.244 1.742-10.491 3.475-15.729 5.211 4.73 1.718 9.473 3.437 14.209 5.151m-.556 1.526c2.918 4.699 5.825 9.39 8.738 14.087-4.73-1.717-9.473-3.435-14.208-5.154-2.91-4.693-5.831-9.384-8.739-14.08 4.734 1.719 9.475 3.437 14.209 5.147m19.618 6.208c5.443-.95 10.888-1.9 16.325-2.85-4.431-2.394-8.866-4.783-13.302-7.179-5.437.947-10.883 1.9-16.325 2.844 4.438 2.396 8.87 4.791 13.302 7.185m-.772 1.433c2.194 5.067 4.386 10.138 6.579 15.205-4.432-2.389-8.87-4.782-13.3-7.178-2.191-5.07-4.387-10.139-6.575-15.212 4.425 2.394 8.861 4.788 13.296 7.185m18.505 8.652c5.505-.421 11.017-.839 16.522-1.253-4.181-2.814-8.364-5.625-12.544-8.438-5.503.418-11.017.835-16.521 1.256 4.183 2.806 8.363 5.619 12.543 8.435m-.909 1.344c1.687 5.259 3.38 10.518 5.072 15.779-4.181-2.807-8.36-5.622-12.54-8.431-1.691-5.259-3.383-10.518-5.08-15.778 4.185 2.811 8.365 5.623 12.548 8.43m17.354 10.99c5.51.378 11.02.755 16.535 1.131-3.738-3.379-7.474-6.761-11.206-10.144-5.514-.373-11.024-.756-16.536-1.133 3.734 3.383 7.471 6.765 11.207 10.146m-1.096 1.206c.918 5.447 1.841 10.895 2.758 16.344-3.732-3.383-7.47-6.766-11.199-10.145-.922-5.448-1.844-10.892-2.758-16.347 3.732 3.386 7.467 6.766 11.199 10.148m15.854 13.103c5.402 1.163 10.806 2.325 16.203 3.486-3.212-3.883-6.424-7.761-9.636-11.645-5.393-1.16-10.801-2.323-16.196-3.481 3.204 3.877 6.419 7.759 9.629 11.64m-1.254 1.036c.135 5.523.264 11.049.398 16.571-3.209-3.882-6.424-7.764-9.64-11.642-.13-5.524-.263-11.05-.391-16.571 3.217 3.881 6.422 7.763 9.633 11.642m13.928 14.942c5.262 1.675 10.527 3.35 15.793 5.024-2.82-4.17-5.65-8.343-8.475-12.513-5.264-1.676-10.531-3.348-15.791-5.024 2.823 4.171 5.649 8.344 8.473 12.513m-1.343.915c-.404 5.507-.802 11.016-1.2 16.53-2.823-4.173-5.651-8.343-8.473-12.514.395-5.509.791-11.022 1.192-16.534 2.831 4.173 5.652 8.345 8.481 12.518m11.985 16.68c4.968 2.416 9.937 4.836 14.904 7.252-2.195-4.535-4.386-9.073-6.582-13.608-4.967-2.418-9.931-4.834-14.897-7.251 2.19 4.537 4.382 9.07 6.575 13.607m-1.466.706c-1.188 5.395-2.382 10.788-3.569 16.184-2.197-4.534-4.391-9.07-6.579-13.606 1.188-5.394 2.379-10.791 3.569-16.183 2.193 4.537 4.388 9.071 6.579 13.605m9.747 17.939c4.705 2.892 9.41 5.786 14.118 8.673-1.736-4.722-3.478-9.458-5.212-14.185-4.708-2.889-9.417-5.782-14.123-8.677 1.743 4.731 3.48 9.461 5.217 14.189m-1.529.559c-1.716 5.254-3.424 10.508-5.14 15.758-1.737-4.729-3.477-9.457-5.212-14.186 1.71-5.251 3.425-10.503 5.141-15.757 1.733 4.728 3.47 9.459 5.211 14.185m7.309 19.192c4.219 3.558 8.448 7.118 12.674 10.677-1.018-4.937-2.034-9.868-3.05-14.806-4.23-3.556-8.451-7.117-12.676-10.674 1.018 4.933 2.033 9.867 3.052 14.803m-1.592.328c-2.478 4.935-4.957 9.88-7.428 14.815-1.018-4.931-2.034-9.867-3.049-14.802 2.474-4.942 4.95-9.875 7.42-14.815 1.018 4.931 2.034 9.863 3.057 14.802m4.831 19.999c3.643 4.159 7.284 8.312 10.922 12.466-.253-5.029-.522-10.064-.784-15.094-3.634-4.153-7.279-8.311-10.919-12.464.266 5.029.523 10.063.781 15.092m-1.618.084c-3.195 4.509-6.384 9.018-9.575 13.53-.259-5.031-.519-10.059-.786-15.094 3.19-4.509 6.383-9.017 9.574-13.53.263 5.033.522 10.063.787 15.094m2.208 20.32c3.2 4.502 6.399 9.004 9.599 13.506.258-5.031.507-10.063.756-15.094-3.199-4.503-6.406-9.004-9.604-13.507-.244 5.028-.498 10.063-.751 15.095m-1.624-.082c-3.634 4.167-7.261 8.33-10.889 12.491.247-5.03.498-10.061.744-15.096 3.635-4.165 7.268-8.33 10.897-12.493-.245 5.035-.502 10.067-.752 15.098m-.353 20.575c2.493 4.933 4.972 9.87 7.451 14.806 1.008-4.936 2.02-9.877 3.026-14.817-2.481-4.933-4.964-9.866-7.451-14.798-1.01 4.935-2.014 9.869-3.026 14.809m-1.592-.33c-4.217 3.569-8.437 7.136-12.652 10.703 1.007-4.935 2.012-9.871 3.021-14.804 4.22-3.573 8.436-7.141 12.656-10.708-1.008 4.94-2.018 9.873-3.025 14.809m-2.974 20.218c1.986 5.162 3.955 10.318 5.932 15.478 1.501-4.811 2.996-9.622 4.489-14.43-1.974-5.164-3.947-10.321-5.927-15.478-1.499 4.805-2.995 9.619-4.494 14.43m-1.549-.485c-4.557 3.128-9.112 6.256-13.667 9.381 1.501-4.808 2.994-9.622 4.487-14.43 4.556-3.133 9.111-6.256 13.672-9.381-1.498 4.812-2.991 9.623-4.492 14.43m-5.593 19.773c1.189 5.395 2.384 10.791 3.577 16.181 2.19-4.53 4.384-9.069 6.576-13.609-1.197-5.395-2.388-10.785-3.589-16.18-2.186 4.536-4.377 9.075-6.564 13.608m-1.47-.705c-4.964 2.419-9.934 4.838-14.895 7.26 2.186-4.538 4.377-9.075 6.572-13.612 4.964-2.419 9.932-4.838 14.898-7.259-2.187 4.537-4.381 9.078-6.575 13.611m-7.966 18.796c.659 5.483 1.322 10.969 1.984 16.45 2.623-4.297 5.24-8.599 7.867-12.903-.663-5.483-1.328-10.971-1.987-16.454-2.623 4.302-5.242 8.602-7.864 12.907m-1.39-.848c-5.18 1.924-10.358 3.847-15.534 5.771 2.62-4.299 5.242-8.603 7.866-12.899 5.176-1.931 10.353-3.855 15.536-5.779-2.619 4.302-5.243 8.604-7.868 12.907m-10.449 17.66c-.136 5.522-.274 11.047-.408 16.57 3.216-3.879 6.431-7.758 9.646-11.637.131-5.524.265-11.043.407-16.568-3.217 3.879-6.437 7.76-9.645 11.635m-1.254-1.037c-5.402 1.159-10.806 2.315-16.208 3.476 3.217-3.88 6.433-7.759 9.645-11.641 5.4-1.157 10.803-2.316 16.209-3.471-3.217 3.881-6.43 7.756-9.646 11.636m-12.604 16.226c-.923 5.448-1.841 10.895-2.768 16.34 3.741-3.38 7.475-6.757 11.211-10.14.922-5.448 1.844-10.891 2.767-16.339-3.732 3.38-7.471 6.759-11.21 10.139m-1.09-1.206c-5.514.374-11.023.751-16.533 1.119 3.735-3.377 7.471-6.758 11.21-10.135 5.51-.376 11.02-.751 16.535-1.126-3.737 3.383-7.469 6.765-11.212 10.142m-14.565 14.533c-1.69 5.263-3.381 10.52-5.076 15.774 4.18-2.805 8.359-5.614 12.545-8.43 1.692-5.257 3.388-10.514 5.079-15.772-4.18 2.807-8.365 5.623-12.548 8.428m-.906-1.349c-5.506-.418-11.016-.836-16.528-1.26 4.189-2.805 8.368-5.62 12.548-8.429 5.51.421 11.023.841 16.526 1.26-4.182 2.811-8.362 5.622-12.546 8.429" fill="#1b181a" fill-rule="evenodd" transform="translate(458.7449 559.277)"/><path d="m0 0 11.098 13.078-16.683-3.981-11.099-13.072zm26.817-284.359c-5.239-1.737-10.488-3.472-15.729-5.209 4.733-1.717 9.476-3.433 14.206-5.153 5.244 1.742 10.491 3.475 15.732 5.211-4.735 1.718-9.47 3.437-14.209 5.151m.553 1.526c-2.911 4.699-5.829 9.39-8.74 14.087 4.737-1.717 9.476-3.435 14.21-5.154 2.913-4.693 5.831-9.384 8.739-14.08-4.733 1.719-9.468 3.437-14.209 5.147m-19.61 6.208c-5.453-.95-10.889-1.9-16.328-2.85 4.426-2.394 8.864-4.783 13.297-7.179 5.44.947 10.883 1.9 16.326 2.844-4.433 2.396-8.865 4.791-13.295 7.185m.769 1.433c-2.199 5.067-4.387 10.138-6.582 15.205 4.435-2.389 8.866-4.782 13.298-7.178 2.194-5.07 4.385-10.139 6.582-15.212-4.436 2.394-8.866 4.788-13.298 7.185m-18.501 8.652c-5.513-.421-11.023-.839-16.53-1.253 4.174-2.814 8.36-5.625 12.543-8.438 5.504.418 11.017.835 16.521 1.256-4.18 2.806-8.357 5.619-12.534 8.435m.902 1.344c-1.689 5.259-3.385 10.518-5.076 15.779 4.188-2.807 8.368-5.622 12.542-8.431 1.696-5.259 3.383-10.518 5.078-15.778-4.187 2.811-8.36 5.623-12.544 8.43m-17.353 10.99c-5.507.378-11.019.755-16.533 1.131 3.735-3.379 7.464-6.761 11.208-10.144 5.51-.373 11.02-.756 16.526-1.133-3.731 3.383-7.465 6.765-11.201 10.146m1.091 1.206c-.918 5.447-1.836 10.895-2.758 16.344 3.734-3.383 7.468-6.766 11.203-10.145.92-5.448 1.836-10.892 2.762-16.347-3.732 3.386-7.471 6.766-11.207 10.148m-15.851 13.103c-5.403 1.163-10.806 2.325-16.204 3.486 3.215-3.883 6.419-7.761 9.636-11.645 5.398-1.16 10.799-2.323 16.201-3.481-3.211 3.877-6.423 7.759-9.633 11.64m1.253 1.036c-.132 5.523-.264 11.049-.398 16.571 3.214-3.882 6.427-7.764 9.636-11.642.132-5.524.267-11.05.396-16.571-3.209 3.881-6.426 7.763-9.634 11.642m-13.928 14.942c-5.262 1.675-10.527 3.35-15.793 5.024 2.826-4.17 5.652-8.343 8.475-12.513 5.259-1.676 10.534-3.348 15.791-5.024-2.823 4.171-5.646 8.344-8.473 12.513m1.346.915c.401 5.507.795 11.016 1.202 16.53 2.823-4.173 5.649-8.343 8.471-12.514-.402-5.509-.793-11.022-1.195-16.534-2.826 4.173-5.649 8.345-8.478 12.518m-11.986 16.68c-4.97 2.416-9.939 4.836-14.905 7.252 2.196-4.535 4.385-9.073 6.579-13.608 4.964-2.418 9.935-4.834 14.905-7.251-2.199 4.537-4.387 9.07-6.579 13.607m1.462.706c1.187 5.395 2.386 10.788 3.576 16.184 2.185-4.534 4.38-9.07 6.576-13.606-1.187-5.394-2.386-10.791-3.573-16.183-2.194 4.537-4.383 9.071-6.579 13.605m-9.742 17.939c-4.705 2.892-9.413 5.786-14.122 8.673 1.737-4.722 3.477-9.458 5.217-14.185 4.704-2.889 9.413-5.782 14.116-8.677-1.739 4.731-3.476 9.461-5.211 14.189m1.524.559c1.718 5.254 3.428 10.508 5.144 15.758 1.732-4.729 3.469-9.457 5.213-14.186-1.71-5.251-3.426-10.503-5.136-15.757-1.742 4.728-3.479 9.459-5.221 14.185m-7.3 19.192c-4.226 3.558-8.452 7.118-12.675 10.677 1.008-4.937 2.026-9.868 3.046-14.806 4.228-3.556 8.453-7.117 12.675-10.674-1.018 4.933-2.029 9.867-3.046 14.803m1.591.328c2.476 4.935 4.946 9.88 7.424 14.815 1.015-4.931 2.032-9.867 3.049-14.802-2.476-4.942-4.946-9.875-7.427-14.815-1.01 4.931-2.031 9.863-3.046 14.802m-4.839 19.999c-3.64 4.159-7.277 8.312-10.92 12.466.258-5.029.519-10.064.782-15.094 3.645-4.153 7.279-8.311 10.919-12.464-.261 5.029-.518 10.063-.781 15.092m1.626.084c3.189 4.509 6.378 9.018 9.568 13.53.265-5.031.526-10.059.784-15.094-3.187-4.509-6.379-9.017-9.568-13.53-.266 5.033-.523 10.063-.784 15.094m-2.218 20.32c-3.2 4.502-6.392 9.004-9.6 13.506-.253-5.031-.497-10.063-.749-15.094 3.2-4.503 6.405-9.004 9.602-13.507.25 5.028.502 10.063.747 15.095m1.624-.082c3.634 4.167 7.265 8.33 10.893 12.491-.249-5.03-.499-10.061-.742-15.096-3.637-4.165-7.267-8.33-10.898-12.493.252 5.035.502 10.067.747 15.098m.357 20.575c-2.49 4.933-4.967 9.87-7.451 14.806-1.008-4.936-2.016-9.877-3.023-14.817 2.481-4.933 4.967-9.866 7.451-14.798 1.004 4.935 2.011 9.869 3.023 14.809m1.591-.33c4.224 3.569 8.438 7.136 12.654 10.703-.999-4.935-2.011-9.871-3.019-14.804-4.22-3.573-8.439-7.141-12.658-10.708 1.004 4.94 2.019 9.873 3.023 14.809m2.975 20.218c-1.978 5.162-3.955 10.318-5.931 15.478-1.5-4.811-2.996-9.622-4.495-14.43 1.979-5.164 3.952-10.321 5.931-15.478 1.497 4.805 2.992 9.619 4.495 14.43m1.549-.485c4.557 3.128 9.112 6.256 13.664 9.381-1.498-4.808-2.991-9.622-4.489-14.43-4.557-3.133-9.108-6.256-13.663-9.381 1.497 4.812 2.99 9.623 4.488 14.43m5.597 19.773c-1.194 5.395-2.385 10.791-3.578 16.181-2.194-4.53-4.379-9.069-6.575-13.609 1.191-5.395 2.389-10.785 3.577-16.18 2.196 4.536 4.382 9.075 6.576 13.608m1.466-.705c4.965 2.419 9.929 4.838 14.897 7.26-2.188-4.538-4.379-9.075-6.575-13.612-4.964-2.419-9.931-4.838-14.895-7.259 2.189 4.537 4.377 9.078 6.573 13.611m7.969 18.796c-.662 5.483-1.324 10.969-1.99 16.45-2.621-4.297-5.24-8.599-7.866-12.903.665-5.483 1.326-10.971 1.988-16.454 2.618 4.302 5.246 8.602 7.868 12.907m1.387-.848c5.182 1.924 10.358 3.847 15.54 5.771-2.623-4.299-5.251-8.603-7.872-12.899-5.178-1.931-10.352-3.855-15.536-5.779 2.627 4.302 5.249 8.604 7.868 12.907m10.449 17.66c.139 5.522.273 11.047.408 16.57-3.216-3.879-6.432-7.758-9.646-11.637-.131-5.524-.267-11.043-.404-16.568 3.214 3.879 6.43 7.76 9.642 11.635m1.253-1.037c5.404 1.159 10.807 2.315 16.209 3.476-3.217-3.88-6.43-7.759-9.645-11.641-5.4-1.157-10.804-2.316-16.206-3.471 3.22 3.881 6.43 7.756 9.642 11.636m12.605 16.226c.923 5.448 1.844 10.895 2.768 16.34-3.735-3.38-7.475-6.757-11.208-10.14-.925-5.448-1.85-10.891-2.77-16.339 3.739 3.38 7.47 6.759 11.21 10.139m1.088-1.206c5.515.374 11.025.751 16.538 1.119-3.735-3.377-7.472-6.758-11.207-10.135-5.518-.376-11.028-.751-16.536-1.126 3.735 3.383 7.472 6.765 11.205 10.142m14.565 14.533c1.694 5.263 3.39 10.52 5.078 15.774-4.18-2.805-8.36-5.614-12.54-8.43-1.694-5.257-3.386-10.514-5.087-15.772 4.186 2.807 8.369 5.623 12.549 8.428m.907-1.349c5.514-.418 11.017-.836 16.526-1.26-4.181-2.805-8.365-5.62-12.545-8.429-5.504.421-11.014.841-16.527 1.26 4.186 2.811 8.363 5.622 12.546 8.429" fill="#1b181a" fill-rule="evenodd" transform="translate(153.5564 559.277)"/></g></svg>