<svg height="89.065437mm" viewBox="0 0 315.58619 315.58621" width="89.065437mm" xmlns="http://www.w3.org/2000/svg"><g transform="matrix(.125 0 0 -.125 -.000015 204.05117875)"><path d="m600.598 740.129h1924.092v-587.578h-1924.092z" fill="#d91920"/><path d="m0 740.129h581.777v-587.578h-581.777z" fill="#fddd04"/><path d="m206.344 231.699h189.426l-97.586 165.821z" fill="#fff"/><path d="m197.906 245.109h195.614l-100.778 172.618z" fill="none" stroke="#231f20" stroke-miterlimit="3.8637" stroke-width="31.7278"/><path d="m68.125 558.594c55.398 55.656 132.617 91.062 216.324 91.062 88.906 0 168.981-38.703 225.059-100.558m-389.32-45.364c41.929 42.34 100.73 69.286 164.261 69.286 67.543 0 128.344-29.528 170.801-76.672m-282.043-47.547c28.473 29.234 67.746 47.336 111.242 47.336 46.203 0 88.5-21.317 117.27-53.813" fill="none" stroke="#231f20" stroke-miterlimit="3.8637" stroke-width="27.5581"/><path d="m810.676 553.418 175.906-.367-39.687 89.582-233.2.652v-403.109l96.84 21.75.141 119.961 110.137.664 18.488 86.023-128.625.149z" fill="#fff"/><path d="m1074.54 239.688 94.26 9.289v174.468h1.12l110.9-188.406 95.36 31.965-102.57 151.785c38.8 15.129 61.54 59.918 61.54 101.207 0 90.719-64.86 123.281-153.6 123.281h-107.01v-403.589zm94.26 319.261c38.82 1.746 72.09-5.812 72.09-53.5 0-47.105-31.61-61.062-72.09-58.152z" fill="#fff"/><path d="m1462.27 627.766-.11-386.75 97.04 22.39.03 385.813z" fill="#fff"/><path d="m2249.53 553.418-188.79-305.344h295.53l53.47 90.324-189.3-.457 187.67 305.352h-276.83l-44.87-89.875z" fill="#fff"/><path d="m1844.63 553.418-188.8-305.344h295.54l53.46 90.324-189.28-.457 187.65 305.352h-276.81l-44.88-89.875z" fill="#fff"/><g fill="#231f20"><path d="m683.219 1.53125h-18.699l-15.129 54.22265-14.786-54.22265h-18.703l-24.476 80.74605 20.738 2.711 14.445-55.586 14.793 54.3985h18.016l14.793-54.2227 14.105 54.2227h19.379z"/><path d="m806.129 1.53125h-18.695l-15.133 54.22265-14.785-54.22265h-18.703l-24.477 80.74605 20.738 2.711 14.446-55.586 14.793 54.3985h18.015l14.789-54.2227 14.11 54.2227h19.378z"/><path d="m929.031 1.53125h-18.695l-15.133 54.22265-14.781-54.22265h-18.703l-24.477 80.74605 20.738 2.711 14.446-55.586 14.793 54.3985h18.015l14.789-54.2227 14.11 54.2227h19.379z"/><path d="m960.488 1.69922h22.2695v24.8164h-22.2695z"/><path d="m1036.14 106.75c-6.97 0-10.71-3.059-10.71-10.1953v-12.7539h15.64l2.55-16.6602h-18.19v-65.44138h-20.22v65.44138h-11.905v16.6602h11.905v14.793c0 18.1832 11.56 24.8122 28.38 24.8122 3.07 0 5.95-.172 8.33-.504l2.72-16.836c-2.04.34-5.1.684-8.5.684"/><path d="m1076.26 48.7891v-47.08988h-20.4v82.10158h17.34l2.55-16.4844c5.44 9.5195 13.6 17.5078 26.35 18.1836l3.23-20.2266c-12.75-.8476-23.29-7.6445-29.07-16.4843"/><path d="m1119.1 1.69922v82.10158h20.4v-82.10158h-20.4zm10.37 95.87108c-6.8 0-12.24 4.7657-12.24 11.5627 0 6.961 5.44 11.894 12.24 11.894 6.63 0 12.07-4.933 12.07-11.894 0-6.797-5.44-11.5627-12.07-11.5627"/><path d="m1155.99 1.69922v15.63668l41.14 50.1446h-36.89l-2.55 16.3203h64.09v-15.6367l-41.14-50.1446h40.45l2.72-16.32028h-67.82"/><path d="m1232.66 1.69922v15.63668l41.14 50.1446h-36.89l-2.55 16.3203h64.09v-15.6367l-41.14-50.1446h40.45l2.72-16.32028h-67.82"/><path d="m1312.05 40.793h44.1992v19.5508h-44.1992z"/><path d="m1472.01 1.69922v53.71098c0 7.1406-2.56 12.0703-10.03 12.0703-6.29 0-12.24-4.0821-18.19-10.1953v-55.58598h-20.4v53.71098c0 7.1406-2.72 12.0703-10.2 12.0703-6.29 0-12.23-4.0821-18.18-10.1953v-55.58598h-20.4v82.10158h17.33l1.88-11.5547c7.64 7.3047 15.97 13.2539 27.02 13.2539 11.73 0 18.02-5.2656 21.08-13.2539 7.31 7.3047 16.32 13.2539 27.37 13.2539 15.47 0 23.11-9.3477 23.11-24.6484v-59.15238h-20.39"/><path d="m1513.67 1.69922v82.10158h20.4v-82.10158h-20.4zm10.37 95.87108c-6.8 0-12.24 4.7657-12.24 11.5627 0 6.961 5.44 11.894 12.24 11.894 6.62 0 12.06-4.933 12.06-11.894 0-6.797-5.44-11.5627-12.06-11.5627"/><path d="m1586.94.34375c-16.15 0-27.03 5.94531-27.03 24.64455v42.1523h-11.56v16.6602h11.56v26.0042l20.06 3.066v-29.0702h16.83l2.55-16.6602h-19.38v-38.75c0-6.6328 3.06-10.207 10.88-10.207 2.38 0 4.59.1758 6.45.6836l2.55-17.16798c-3.22-.68359-6.96-1.35547-12.91-1.35547"/><path d="m1646.44.34375c-16.16 0-27.04 5.94531-27.04 24.64455v42.1523h-11.56v16.6602h11.56v26.0042l20.06 3.066v-29.0702h16.83l2.55-16.6602h-19.38v-38.75c0-6.6328 3.06-10.207 10.88-10.207 2.38 0 4.59.1758 6.46.6836l2.55-17.16798c-3.23-.68359-6.97-1.35547-12.91-1.35547"/><path d="m1690.12 51.5039h32.81c-1.36 12.7461-6.47 19.8945-16.32 19.8945-8.16 0-14.96-6.6328-16.49-19.8945zm19.71-51.5039c-22.94 0-40.1 13.0859-40.1 42.668 0 26.6875 15.97 42.832 37.39 42.832 24.65 0 35.69-18.5273 35.69-41.8164 0-1.6992-.16-3.7422-.16-4.9219h-52.86c1.01-16.1523 9.68-22.9492 22.26-22.9492 10.54 0 19.21 3.9063 28.21 10.1953l2.39-15.9805c-8.84-6.12105-19.55-10.0273-32.82-10.0273"/><path d="m1760.17 1.69922v119.49978l20.4 3.227v-122.72678h-20.4"/><path d="m1851.79 1.69922v53.71098c0 7.1406-3.06 12.0703-10.54 12.0703-6.46 0-12.74-4.0821-18.69-10.3711v-55.41018h-20.4v119.49978l20.4 3.227v-50.9963c6.8 6.2891 15.29 12.0703 26.17 12.0703 15.3 0 23.46-9.3477 23.46-24.6484v-59.15238h-20.4"/><path d="m1908.74 51.5039h32.81c-1.35 12.7461-6.46 19.8945-16.32 19.8945-8.16 0-14.96-6.6328-16.49-19.8945zm19.73-51.5039c-22.95 0-40.12 13.0859-40.12 42.668 0 26.6875 15.98 42.832 37.39 42.832 24.65 0 35.7-18.5273 35.7-41.8164 0-1.6992-.17-3.7422-.17-4.9219h-52.86c1.01-16.1523 9.69-22.9492 22.26-22.9492 10.54 0 19.21 3.9063 28.22 10.1953l2.38-15.9805c-8.84-6.12105-19.55-10.0273-32.8-10.0273"/><path d="m2005.64 0c-11.89 0-24.14 3.73828-31.95 7.98828l2.72 17.00002c8.83-5.7774 19.71-9.6836 29.92-9.6836 8.84 0 13.59 3.2226 13.59 8.6601 0 5.7813-3.56 8.1641-16.66 11.3868-19.88 5.1093-28.21 10.8789-28.21 25.8398 0 14.2774 11.22 24.3086 30.25 24.3086 10.72 0 20.57-2.207 28.73-5.7812l-2.72-16.9922c-8.16 4.5898-17.84 7.4765-26.01 7.4765-7.64 0-11.38-3.0625-11.38-7.4765 0-4.4258 3.05-6.9727 15.3-10.2071 21.24-5.4414 29.57-11.2109 29.57-26.6797 0-16.1523-11.55-25.8398-33.15-25.8398"/><path d="m2081.97 0c-11.89 0-24.14 3.73828-31.95 7.98828l2.71 17.00002c8.84-5.7774 19.72-9.6836 29.93-9.6836 8.83 0 13.59 3.2226 13.59 8.6601 0 5.7813-3.56 8.1641-16.66 11.3868-19.88 5.1093-28.21 10.8789-28.21 25.8398 0 14.2774 11.22 24.3086 30.25 24.3086 10.71 0 20.57-2.207 28.73-5.7812l-2.72-16.9922c-8.16 4.5898-17.85 7.4765-26.01 7.4765-7.65 0-11.39-3.0625-11.39-7.4765 0-4.4258 3.06-6.9727 15.31-10.2071 21.24-5.4414 29.57-11.2109 29.57-26.6797 0-16.1523-11.56-25.8398-33.15-25.8398"/><path d="m2147.41 51.5039h32.81c-1.35 12.7461-6.46 19.8945-16.31 19.8945-8.17 0-14.96-6.6328-16.5-19.8945zm19.73-51.5039c-22.95 0-40.12 13.0859-40.12 42.668 0 26.6875 15.98 42.832 37.39 42.832 24.65 0 35.7-18.5273 35.7-41.8164 0-1.6992-.17-3.7422-.17-4.9219h-52.86c1.02-16.1523 9.69-22.9492 22.27-22.9492 10.53 0 19.2 3.9063 28.21 10.1953l2.38-15.9805c-8.84-6.12105-19.55-10.0273-32.8-10.0273"/><path d="m2266.24 1.69922v53.71098c0 7.1406-3.06 12.0703-10.54 12.0703-6.45 0-12.74-4.0821-18.69-10.3711v-55.41018h-20.4v82.10158h17.34l1.87-11.5547c7.65 7.3047 16.32 13.2539 27.36 13.2539 15.31 0 23.46-9.3477 23.46-24.6484v-59.15238h-20.4"/><path d="m2306.2 1.69922h22.2695v24.8164h-22.2695z"/><path d="m2399.18 64.7656c-5.1 2.375-9 3.5625-15.98 3.5625-10.71 0-18.52-8.6601-18.52-26.6875 0-15.9765 6.79-23.457 15.81-23.457 7.47 0 13.25 4.4258 18.69 11.2187zm2.89-63.06638-1.7 11.38668c-5.78-6.9609-13.77-13.0859-25.16-13.0859-17.16 0-30.93 12.7422-30.93 40.4609 0 30.5938 16.82 44.1875 35.87 44.1875 7.81 0 14.1-1.3554 19.03-3.0546v39.6052l20.4 3.227v-122.72678h-17.51"/><path d="m2456.47 51.5039h32.82c-1.36 12.7461-6.47 19.8945-16.32 19.8945-8.17 0-14.96-6.6328-16.5-19.8945zm19.73-51.5039c-22.95 0-40.12 13.0859-40.12 42.668 0 26.6875 15.98 42.832 37.4 42.832 24.65 0 35.69-18.5273 35.69-41.8164 0-1.6992-.17-3.7422-.17-4.9219h-52.86c1.02-16.1523 9.69-22.9492 22.27-22.9492 10.54 0 19.21 3.9063 28.21 10.1953l2.38-15.9805c-8.83-6.12105-19.55-10.0273-32.8-10.0273"/></g></g></svg>