<svg height="774.47498" viewBox="0 0 774.47498 774.47498" width="774.47498" xmlns="http://www.w3.org/2000/svg"><g transform="matrix(.125 0 0 -.125 -.0018875 595.1107425)"><path d="m6190.67 1764.21c-6.91-1.2-12.55-1.81-16.88-1.81-8.98 0-15.09 3.12-18.37 9.33-2.26 4.32-3.38 13.9-3.38 28.75v160.9h38.63v36.29h-38.63v96.12l-38.07-27.98v-68.14h-28v-36.29h28v-158.3c0-27.29 1.49-45.53 4.51-54.67 3.01-9.16 8.61-16.37 16.73-21.64 8.1-5.27 18.83-7.91 32.11-7.91 8.47 0 17.96 1.4 28.51 4.15zm-189.18 336.05c-9.23-5.69-16.15-13.94-20.66-24.73-4.47-10.8-6.73-27-6.73-48.58v-29.28h-33.95v-36.29h33.95v-238.88h38.08v238.88h44.05v36.29h-44.05v25.38c0 16.75 2.48 28.12 7.38 34.08 4.94 5.96 13.1 8.95 24.47 8.95 7.09 0 14.63-.88 22.56-2.6l5.7 40.42c-12.97 3.28-24.96 4.93-35.85 4.93-14.05 0-25.67-2.86-34.95-8.57zm-140.87-256.78c0-22.63-2.77-39.87-8.3-51.69-5.53-11.83-13.85-21.29-25.02-28.36-11.13-7.1-23.52-10.63-37.16-10.63-14.33 0-25.57 3.92-33.68 11.79-8.15 7.86-12.18 18.35-12.18 31.47 0 8.46 1.77 15.94 5.3 22.42 3.55 6.48 8.53 11.48 14.91 15.02 6.37 3.55 17.61 6.7 33.68 9.46 27.64 4.84 48.44 10.71 62.45 17.61zm38.61-5.68v62.18c0 25.21-1.78 44.4-5.31 57.53-3.56 13.13-12.07 24.13-25.53 33.03-13.49 8.88-32.03 13.34-55.71 13.34-30.4 0-53.78-6.75-70.08-20.22-16.32-13.48-27.16-34.99-32.54-64.52l37.56-6.21c4.16 20.31 10.66 34.14 19.46 41.53 8.8 7.36 22.11 11.05 39.89 11.05 19.72 0 34.29-5.53 43.78-16.59 6.77-7.59 10.12-20.79 10.12-39.63l-.25-11.91c-14.52-6.33-37.32-11.76-68.42-16.33-23.16-3.29-40.42-8.38-51.81-15.29s-20.41-16.49-26.95-28.76c-6.59-12.26-9.86-26.34-9.86-42.23 0-24.01 7.03-43.11 20.99-57.27 13.99-14.16 32.72-21.24 56.22-21.24 14.87 0 29.2 3.36 43.02 10.11 13.82 6.73 27.14 16.75 39.89 30.06 1.24-13.13 3.82-24.46 7.78-33.95l39.93.02c-4.88 10.71-8.11 21.73-9.74 33.03-1.64 11.31-2.44 38.74-2.44 82.27zm-325.07 166.08c-13.67 0-26.14-3.17-37.46-9.48-11.31-6.31-21.47-15.76-30.43-28.36v136.28l-38.08-.02v-379.84l38.08.02v150.53c0 33.86 5.81 57.45 17.49 70.75 11.67 13.29 25.78 19.95 42.35 19.95 14.86 0 26.52-5.18 35-15.55 8.43-10.36 12.68-27.47 12.68-51.31v-174.37h38.09v174.37c0 40.77-6.96 68.81-20.84 84.08-13.93 15.29-32.88 22.95-56.88 22.95zm-206.7-232.58c-10.29-11.14-22.69-16.71-37.16-16.71-18.52 0-33.68 8.38-45.51 25.13-11.8 16.76-17.73 43.88-17.73 81.37 0 36.27 6.17 62.73 18.51 79.4 12.36 16.67 27.95 25 46.75 25 12.64 0 23.42-4.58 32.41-13.78s15.31-23.09 18.91-41.66l37.05 6.75c-4.47 29.02-14.72 50.77-30.68 65.27-16.01 14.52-35.64 21.79-58.96 21.79-30.21 0-54.97-11.97-74.21-35.9-19.28-23.92-28.92-59.82-28.92-107.66 0-47.5 9.56-83.38 28.61-107.66 19.1-24.27 43.43-36.4 72.96-36.4 24.37 0 45.21 8.65 62.59 25.91 17.35 17.28 28.18 42.31 32.51 75.15l-37.57 5.95c-2.76-23.49-9.31-40.81-19.56-51.95zm-209.94 94.32c-9.32 5.96-29.79 13.98-61.43 24.01-23 7.57-36.87 13.06-41.52 16.5-7.81 5.85-11.71 13.85-11.71 24 0 10.33 4.07 18.79 12.19 25.42 8.11 6.61 20.47 9.94 37.05 9.94 29.2 0 45.53-15.02 48.99-45.07l37.3 6.22c-2.58 19-7.27 33.6-13.99 43.78-6.73 10.2-16.44 18.31-29.18 24.36-12.68 6.04-27.42 9.08-44.14 9.08-26.62-.02-47.42-7.37-62.48-22.06-15.02-14.67-22.51-33.76-22.51-57.26 0-13.65 2.77-25.82 8.3-36.52 5.52-10.71 13.27-19.28 23.32-25.66 9.99-6.4 29.89-14.17 59.59-23.31 20.54-6.22 33.49-11.38 38.84-15.53 7.79-6.06 11.67-14.51 11.67-25.4 0-12.62-4.51-23.01-13.56-31.22s-21.86-12.31-38.4-12.31-29.82 4.71-39.8 14.17c-9.99 9.45-16.13 23.9-18.34 43.32l-38.12-7.23c8.64-59.1 40-88.62 94.07-88.61 28.84 0 51.6 8.13 68.26 24.41 16.68 16.25 25.01 37.54 25.01 63.84 0 14.19-2.57 26.43-7.73 36.72-5.17 10.3-12.4 18.44-21.68 24.41zm-206.62-103.28c-8.99 0-15.09 3.12-18.37 9.34-2.27 4.31-3.38 13.89-3.38 28.75v160.9h38.62v36.29h-38.62v96.11l-38.08-27.98v-68.13h-27.99v-36.29h27.99v-158.3c0-27.29 1.5-45.53 4.52-54.67 3-9.17 8.61-16.37 16.72-21.64 8.11-5.28 18.83-7.91 32.1-7.91 8.48 0 17.98 1.39 28.52 4.14l-5.16 41.21c-6.91-1.2-12.56-1.82-16.87-1.82zm-178.45 232.03c-7.34-6.31-15.42-19.13-24.22-38.48v41.73h-34.44v-275.18h38.07v144.07c0 20.03 2.41 38.95 7.28 56.74 2.73 10.19 7.49 18.13 14.21 23.84 6.76 5.69 14.19 8.55 22.29 8.55 9 0 18.23-3.36 27.72-10.11l12.98 43.27c-13.3 10.02-26.37 15.04-39.13 15.04-9.16 0-17.42-3.17-24.76-9.47zm-161.68 54.27h38.08v53.62h-38.08zm0-326.21h38.08v275.18h-38.08zm-117.24 116.08-12.94-53.12-11.36 52.61-33.57 159.61h-39.48l-35.79-161.18-11.92-56.74-13.31 59.07-35.93 158.85-39.53-.02 69.3-275.16h39.9l45.6 211.67 8.6-46.88 35.98-164.79h39.84l70.43 275.18h-37.31zm-351.76-8.82c-6.08-20.4-10.77-37.85-14.05-52.35-4.15 18.3-8.97 36.78-14.55 55.44l-48.54 164.81h-40.4l85.82-275.18h35.6l85.85 275.18h-39.36zm-198.71-107.28h38.08v275.18h-38.08zm0 326.21h38.08v53.62h-38.08zm-62.9-286.32c-8.99 0-15.1 3.13-18.36 9.32-2.28 4.32-3.4 13.9-3.4 28.75v160.9l38.62.02v36.3l-38.62-.02v96.11l-38.07-27.98v-68.13h-28v-36.3h28v-158.3c0-27.28 1.5-45.53 4.51-54.67 3.01-9.17 8.61-16.36 16.72-21.64 8.12-5.27 18.84-7.91 32.11-7.89 8.48 0 17.98 1.4 28.52 4.15l-5.17 41.2c-6.9-1.2-12.55-1.82-16.86-1.82zm-169.14 81.1c0-22.64-2.77-39.88-8.31-51.7-5.51-11.84-13.83-21.29-25-28.36-11.13-7.1-23.54-10.64-37.17-10.64-14.33 0-25.57 3.93-33.67 11.81-8.16 7.85-12.18 18.33-12.18 31.46 0 8.46 1.77 15.93 5.3 22.43 3.53 6.47 8.52 11.47 14.91 15.01 6.37 3.55 17.61 6.7 33.67 9.46 27.64 4.83 48.45 10.71 62.45 17.62zm38.62-5.71v62.18c0 25.22-1.78 44.41-5.31 57.53-3.57 13.13-12.08 24.13-25.53 33.04-13.5 8.89-32.03 13.34-55.71 13.34-30.4 0-53.78-6.74-70.08-20.21-16.33-13.48-27.16-34.99-32.54-64.51l37.56-6.22c4.15 20.31 10.66 34.14 19.45 41.52 8.8 7.37 22.12 11.06 39.89 11.06 19.71 0 34.3-5.52 43.78-16.58 6.77-7.6 10.12-20.8 10.12-39.64l-.25-11.92c-14.52-6.32-37.33-11.76-68.41-16.32-23.16-3.29-40.43-8.38-51.82-15.29s-20.4-16.49-26.94-28.76c-6.58-12.26-9.87-26.34-9.87-42.23 0-24.02 7.04-43.1 20.98-57.27 14.01-14.16 32.75-21.24 56.22-21.24 14.88 0 29.22 3.36 43.04 10.11 13.82 6.73 27.12 16.75 39.89 30.05 1.24-13.12 3.81-24.45 7.78-33.94h39.93c-4.88 10.71-8.12 21.73-9.75 33.04-1.64 11.31-2.43 38.72-2.43 82.26zm-403.6 48.69c1.24 24.18 7.88 43.4 19.98 57.66 12.07 14.25 26.69 21.36 43.78 21.36 19.03 0 34.62-8.55 46.91-25.64 8.44-11.72 13.56-29.53 15.26-53.36zm64.01 117.39c-30.54 0-55.81-12.49-75.78-37.46-19.92-24.96-29.93-61.18-29.93-108.7 0-45.76 9.9-80.78 29.67-105.06 19.8-24.27 45.65-36.4 77.61-36.4 25.38 0 46.69 7.48 63.85 22.44 17.21 14.93 29.06 37.1 35.65 66.46l-39.39 5.96c-11.24-37.69-31.17-56.51-59.85-56.51-18.3 0-33.86 7.86-46.63 23.58-12.8 15.71-19.97 39.04-21.53 69.95l168.45.02.25 12.44c0 46.47-9.78 81.96-29.27 106.5-19.53 24.52-43.89 36.78-73.1 36.78zm-186.54-9.47c-7.36-6.32-15.42-19.14-24.23-38.48v41.73h-34.44v-275.18h38.08v144.06c0 20.04 2.39 38.95 7.28 56.75 2.71 10.18 7.48 18.13 14.21 23.84 6.76 5.69 14.18 8.55 22.29 8.55 8.98 0 18.22-3.37 27.7-10.12l12.99 43.28c-13.3 10.02-26.36 15.04-39.13 15.04-9.16 0-17.41-3.17-24.75-9.47zm-106.53 107.91h-55.89l-154.77-188.37v188.35h-41.17v-379.83h41.17v131.62l51.32 60.46 110.65-192.07h54.41l-136.46 225.76zm1812.56 314.01c-11.92-16.58-26.03-24.87-42.25-24.87-16.44 0-30.83 8.64-43.17 25.91-12.35 17.28-18.54 43.69-18.58 79.27 0 36.46 5.78 63.2 17.34 80.21 11.6 17 25.42 25.51 41.5 25.51 18.14 0 33.2-8.84 45.12-26.54 11.94-17.72 17.9-45.83 17.9-84.34.03-33.53-5.93-58.57-17.86-75.15zm14.15 322.83v-136.27c-7.09 11.91-15.99 21.2-26.8 27.85-10.77 6.64-22.44 9.99-35.02 9.99-17.59 0-33.61-5.28-47.99-15.82-14.42-10.52-25.9-26.69-34.56-48.44-8.62-21.78-12.9-48.29-12.9-79.55.03-45.6 9.73-80.97 29.16-106.11 19.46-25.13 42.48-37.7 69.06-37.7 12.61 0 24.36 3.49 35.23 10.49 10.88 7 19.79 17.15 26.69 30.46v-34.73h35.75l-.03 379.83zm-209.86-210.64c0 25.41-1.56 44.22-4.66 56.49-3.09 12.26-7.82 22.25-14.1 29.94-6.29 7.66-14.55 13.89-24.85 18.65-10.24 4.74-21.42 7.11-33.48 7.11-15.5 0-29.24-3.75-41.24-11.22-11.99-7.47-22.12-18.77-30.4-33.88v38.88h-34.45l.04-275.17h38.08l-.04 150.44c0 33.19 5.45 56.62 16.34 70.29 10.87 13.66 25.44 20.49 43.78 20.49 9.67 0 18.17-2.57 25.52-7.63 7.35-5.12 12.73-12.33 16.18-21.66 3.46-9.35 5.2-24.12 5.2-44.36l.04-167.56h38.08zm-425.63-124.64c4.22-14.7 12.65-26.82 25.24-36.4 12.62-9.59 27.82-14.38 45.61-14.38 15.05 0 28.51 3.88 40.43 11.65 11.94 7.78 22.3 19.43 31.11 34.99v-40.42h34.18l-.04 275.17h-38.33v-147.44c.03-34.55-4.98-58.3-14.98-71.26-11.75-15.02-26.8-22.53-45.1-22.53-9.86 0-18.62 2.89-26.29 8.67-7.72 5.78-12.98 13.48-15.83 23.06-2.83 9.6-4.26 28.55-4.28 56.88v152.62h-38.11l.04-170.5c0-25.4 2.11-45.44 6.35-60.11zm-189.57 116.31h-117.34l.03-46.89h117.35zm-154.11 120.5c-9.17 0-17.42-3.17-24.76-9.47-7.36-6.31-15.42-19.13-24.22-38.47v41.72h-34.45l.03-275.17h38.1l-.04 144.06c0 20.03 2.39 38.95 7.27 56.74 2.72 10.19 7.49 18.13 14.21 23.85 6.77 5.68 14.18 8.54 22.3 8.54 8.98 0 18.21-3.36 27.7-10.11l12.98 43.27c-13.3 10.02-26.35 15.04-39.12 15.04zm-149.32-281.41-.02 275.17h-38.34v-147.44c.04-34.55-4.98-58.29-14.98-71.26-11.75-15.02-26.8-22.53-45.1-22.53-9.86 0-18.62 2.89-26.28 8.68-7.72 5.78-13 13.47-15.83 23.05-2.84 9.6-4.26 28.55-4.3 56.88v152.62h-38.1l.04-170.49c0-25.4 2.1-45.44 6.36-60.12 4.22-14.69 12.65-26.82 25.24-36.4 12.61-9.59 27.82-14.38 45.6-14.38 15.06 0 28.51 3.89 40.43 11.65 11.94 7.79 22.3 19.44 31.1 34.99v-40.42zm-220.62.51-5.18 41.2c-6.9-1.2-12.54-1.82-16.87-1.82-8.98 0-15.09 3.13-18.37 9.34-2.25 4.31-3.37 13.9-3.37 28.75l-.04 160.9h38.63v36.29h-38.63v96.12l-38.07-27.99v-68.13h-28v-36.29h28l.03-158.3c0-27.29 1.49-45.53 4.52-54.68 3-9.16 8.61-16.36 16.73-21.63 8.1-5.28 18.82-7.92 32.1-7.92 8.47 0 17.97 1.41 28.52 4.16zm-156.02-.53-.02 379.83h-38.1l.04-379.83zm-103.31 0-.04 275.17h-38.33v-147.44c.04-34.55-4.99-58.29-14.98-71.26-11.74-15.01-26.8-22.53-45.08-22.53-9.86 0-18.64 2.9-26.3 8.68-7.71 5.78-12.99 13.47-15.82 23.06s-4.26 28.54-4.3 56.87v152.62h-38.1l.03-170.5c0-25.39 2.11-45.43 6.36-60.11 4.22-14.68 12.66-26.82 25.25-36.4 12.61-9.58 27.82-14.38 45.6-14.38 15.05 0 28.51 3.89 40.43 11.65 11.93 7.79 22.3 19.44 31.1 34.99v-40.42zm-218.3 379.83h-55.9l-154.77-188.37v188.36h-41.16l.03-379.84h41.17l-.04 131.62 51.32 60.46 110.69-192.06h54.41l-136.48 225.75z" fill="#4f4c4c"/><path d="m5387.28 1423.85v-346.64l-231.87 346.64h-59.93v-441.491h56v346.921l231.9-346.921h59.93v441.491zm-671.34-239.14h244.22v51.8h-244.22v135.2h260.81v52.12h-319.23v-441.49h329.44v52.09h-271.02zm-243.07 30.09c-17.68 8.04-50.26 17.42-97.72 28.16-47.49 10.73-76.88 21.25-88.11 31.48-11.42 10.24-17.17 23.27-17.17 39.15 0 18.25 8.08 33.87 24.26 46.82 16.15 12.96 41.9 19.43 77.25 19.43 33.91 0 59.56-7.12 76.94-21.37 17.35-14.26 27.56-35.36 30.55-63.24l56.04 4.19c-1.02 25.92-8.26 49.09-21.68 69.57-13.46 20.49-32.69 36-57.66 46.53-25.02 10.54-53.87 15.82-86.61 15.82-29.7 0-56.72-5.02-81.01-15.05-24.29-10.06-42.76-24.77-55.42-44.15-12.63-19.36-18.95-40.2-18.95-62.48 0-20.29 5.16-38.6 15.49-54.96 10.32-16.37 26.05-30.06 47.13-41.1 16.26-8.63 44.65-17.82 85.25-27.54 40.53-9.75 66.71-16.94 78.58-21.55 18.48-7.02 31.7-15.71 39.75-26.04 8.03-10.35 12.08-22.44 12.08-36.29 0-13.66-4.19-26.26-12.52-37.8-8.33-11.55-21.05-20.62-38.12-27.26-17.05-6.62-36.73-9.92-59.01-9.92-25.09 0-47.68 4.35-67.75 13.08-20.08 8.75-34.87 20.19-44.45 34.34-9.51 14.16-15.59 32.26-18.21 54.36l-55.1-4.84c.81-29.51 8.89-55.96 24.26-79.35 15.35-23.4 36.51-40.9 63.53-52.528 26.98-11.653 60.48-17.473 100.45-17.473 31.5 0 59.85 5.762 85.05 17.313 25.21 11.548 44.51 27.708 57.96 48.488 13.47 20.79 20.19 42.91 20.19 66.41 0 23.69-6.11 44.62-18.36 62.78-12.26 18.16-31.24 33.19-56.91 45.02zm-439.73-.02c-17.68 8.04-50.26 17.42-97.72 28.17-47.49 10.73-76.88 21.24-88.11 31.45-11.42 10.24-17.16 23.28-17.16 39.15 0 18.25 8.06 33.88 24.25 46.84 16.16 12.96 41.9 19.44 77.24 19.44 33.93 0 59.56-7.13 76.94-21.38 17.36-14.26 27.57-35.36 30.56-63.25l56.03 4.2c-1.02 25.92-8.25 49.1-21.67 69.58-13.46 20.48-32.69 35.99-57.67 46.52-25.03 10.55-53.87 15.83-86.59 15.83-29.71 0-56.73-5.03-81.03-15.06-24.27-10.08-42.75-24.77-55.42-44.15-12.61-19.37-18.94-40.2-18.94-62.48 0-20.29 5.16-38.6 15.49-54.96 10.33-16.37 26.04-30.08 47.13-41.11 16.26-8.63 44.65-17.81 85.25-27.53 40.54-9.75 66.72-16.94 78.58-21.55 18.47-7.02 31.71-15.71 39.74-26.04 8.05-10.34 12.08-22.44 12.08-36.29 0-13.66-4.19-26.26-12.51-37.8-8.33-11.55-21.06-20.63-38.12-27.26-17.05-6.62-36.71-9.92-59.02-9.92-25.09 0-47.67 4.35-67.74 13.09-20.08 8.74-34.88 20.16-44.45 34.3-9.51 14.17-15.6 32.28-18.21 54.37l-55.1-4.82c.81-29.51 8.88-55.96 24.26-79.35 15.35-23.39 36.5-40.9 63.54-52.551 26.98-11.641 60.47-17.449 100.43-17.449 31.5 0 59.87 5.769 85.06 17.308 25.21 11.542 44.52 27.712 57.96 48.492 13.47 20.79 20.19 42.91 20.19 66.41 0 23.69-6.11 44.62-18.37 62.78-12.25 18.17-31.23 33.19-56.9 45.02zm-636.43-30.14 244.23.02v51.79l-244.23-.02v135.21l260.81.02v52.12l-319.22-.03v-441.488l329.43.019v52.089l-271.02-.01zm-243.69 57.82-229.47-.02v181.29h-58.43v-441.48h58.43v208.09l229.47.02v-208.098h58.44v441.488h-58.44z" fill="#e22739"/><path d="m862.703 0h977.945v907.078h-977.945z" fill="#f1de1e"/><path d="m272.703 604.719h977.945v907.082h-977.945z" fill="#f68717"/><path d="m0 1209.44h977.949v907.09h-977.949z" fill="#e22739"/><path d="m272.703 1814.16h977.945v907.086h-977.945z" fill="#74c02c"/><path d="m862.703 2418.89h977.945v907.082h-977.945z" fill="#469fdd"/><path d="m2395.39 1344.33c-105.46 0-203.64-30.81-276.38-86.83-72.43-55.75-112.35-129.91-112.35-208.59 0-90.242-4.59-102.89-27.7-127.48l-14.58-15.512 17.01-12.938c8.22-6.351 18.57-11.261 29.42-14.691-38.08-44.039-128.29-63.41-157.2-63.41-14.04 0-20.61 5.461-31.39 14.383-13.65 11.429-30.56 25.547-63.3 25.547-7.05 0-14.11-.668-21-1.778-13.07 11.598-26.62 18.848-54.5 18.848-41.46 0-74.97-39.738-77.24-75.199l-1.45-21.899 22.17 1.289c15.93.942 29.43-.84 40.44-5.09.05-.242.05-.621.05-.921-8.13 1.371-16.55 2.152-25.75 2.152-22.63 0-46.78-11.492-63.04-30.539-47.41-7.004-79.72-41.274-79.72-86.012 0-36.762 14.7-58.43 27.56-73.262l18.97-22.019 13.44 25.723c7.1 13.597 19 24.179 30.5 31.886 11.16-10.199 24.73-16.59 40.17-16.59 2.72 0 5.17.102 7.76.192-3.52-10.41-5.59-20.719-5.59-30.461 0-6.508.86-12.75 2.48-18.52 3.73-13.121 12.69-26.55 23.55-34.16l.3-3.988c1.1-29.723 30.76-60.762 53.28-72.5l11.46-5.992 10.19 7.992c15.91 12.937 26.93 28.078 36.43 46.559 23.45 3.75 45.51 15.109 59.72 31.691 10.87 12.48 22.47 34.07 22.97 67.59 8.21 1.199 16.53 3.058 24.21 5.937 10.06-19.57 32.11-35.808 52.79-44.418 0 0 19.79-11.609 12.92-33.289l-8.52-27.301 28.94 2.321c39.42 3.347 79.11 28.168 79.11 69.109l-.08 2.078c8.56 11.524 22.34 34.801 22.34 61 0 2.703-.44 5.582-.68 8.442 35.93 10.539 92.85 31.218 135.03 54.73 5-9.5 18.01-34.449 18.01-34.449l16.42 6.18c23.86 9.007 48.44 26.269 68.14 46.777 1.93-8.68 2.57-18.457 3.38-30.09l2.3-34.808 28.44 19.058c64.99 43.703 131.42 102.692 131.42 208.094 0 55.598-13.22 79.777-23.91 99.137-6.79 12.25-11.21 20.371-11.21 35.591 0 26.08 16.78 59 46.05 77.79v261.14l-16.43.3zm-116.58 1407c-34.16-20.07-121.18-75.71-121.18-127.12 0-24.89 9.91-32.89 9.91-32.89-5.62-12.6-7.24-25.75-7.24-35.84 0-38.06 29.36-71.03 69.87-85.01 2.91-1.04 6.05-1.68 9.23-2.23.85-3.61 2.53-7.52 4.9-11.5-21.75-4.37-45.67-7.08-62.6-7.08-68.28 0-99.4 29.16-99.4 56.28 0 16.45 5.56 33.97 18.53 49.54l10.74 8.97-13.1 10.48c-9.23 7.22-22 11.28-35.97 11.28-38.04 0-78.51-30.94-78.51-88.12 0-85.3 80.12-124.2 154.64-124.2 39.66 0 87.13 13.09 121.05 24.65-2.25-7.87-1.57-13.76 1.96-22.48-2.39-4.94-3.71-10.7-3.71-17.22 0-34.23 35.51-62.45 75.33-62.45 30.33 0 45.17 23.51 54.1 23.51 7.25 0 16.81-2.53 16.81-23.83 0-25.05-36.6-31.75-58.25-31.75-53.08 0-96.21 24.77-127.63 42.78-20.76 11.92-35.66 20.48-50.14 20.48h-19.68s0-56.12 0-78.43c-62.28 3.28-84.11 21.96-112.67 47.3l-12.39 10.94-12.99-10.15c-18.12-14.29-38.09-36.9-51.52-64.47-90.41 45.26-214.38 121.43-234.08 148.39-27.12 37.12-53.15 66.27-74 89.58-33.96 37.89-56.36 62.92-55.88 89.82.12 7.93 3.28 19.15 6.6 31.16 4.36 15.84 9.37 33.99 9.37 51.72 0 23.59-14.61 39.87-33.21 49.44-7.65 33.75-41 67.66-81.66 67.66-36.11 0-63.9-12.58-76.4-34.56l-9.18-16.27 16.04-9.7c15.97-9.67 27.14-20.9 34.57-30.53-2.02-4.75-3.21-9.9-3.49-15.5 0-1.63-.1-3.29-.1-4.93 0-4.57.37-8.9.88-13.18-2.97 10.64-8.6 20.41-17.01 28.36-6.74 6.39-14.96 11.33-23.95 14.52-14.34 29.52-41.58 46.28-75.82 46.28-45.85 0-79.92-43.6-80.53-72.97l.04-17.22 16.92-2.36c10.18-1.36 19-4.08 26.71-8.04-3.63-7.94-5.68-16.22-5.68-24.79 0-33.49 22.77-49.47 41.14-60.9-3.13.12-6.1.46-9.51.46-26.02 0-52.13-9.91-67.01-30.98-44.07-8.94-74.17-42.93-74.17-85.09 0-36.69 14.75-58.45 27.62-73.25l21.45-24.81 11.84 30.43c6.66 17.06 18.02 29.89 33.85 38.32 13.96-10.91 31.95-18.92 53.87-23.54 2.37-20.65 11.26-42 25.64-59.82-8.75-8.26-20.87-15.93-37.13-19.18l-26.44-5.19 13.16-23.21c11.8-21.01 37.64-43.64 74.37-43.64 33.14 0 67.95 21.73 86.77 52.88 2.11.76 4.22 1.66 6.14 2.67 61.81-87.25 71.64-152.46 72.09-204.88l.2-19.22h19.79c10.93 0 35.1.19 54.09 15.79 3.63-17.81 5.58-35.1 5.58-52.08 0-29.87-5.58-58.91-16.75-88.91l-8.28-22.09 23.62-3.73c28.74-4.54 63.47 4.63 86.06 24.88 11.65-23.08 15.59-43.07 16.12-58.59-5.74-4.3-12.57-8.14-21.35-11.78l-18.06-7.49 7.57-17.81c3.04-7.29 6.57-14.13 10.43-20.83-65.46-41.48-117.61-68.74-144.69-75.33-20.99-5.2-52.27-18.14-82.65-30.71-26.48-10.87-66.56-27.51-76.39-27.51-14.7 0-27.55 8.9-41.18 18.54-14.54 10.17-29.54 20.67-48.35 20.67-4.3 0-8.69-.61-12.96-1.5-20.15 8.95-40.2 9.05-49.35 9.05-44.69 0-74.23-32.9-85.94-61.1l-11.16-26.76h29.32c15.61 0 30.18-3.28 43.44-9.75 2.16-14.16 8.66-27.18 17.47-38.21-16.37-4.96-29.36-13.02-37.84-24.87-7.8-10.93-10.76-22.87-10.76-33.9 0-1.72.14-3.41.23-5.03-25.63-14.24-40.07-36.69-40.07-63.5 0-36.5 22.36-56.76 37.21-70.08l22.66-20.48 10.53 26.02c6.38 15.81 15.84 26.45 28.04 31.99 1.99-1.59 3.91-2.83 5.45-3.78 3.06-1.76 6.35-2.93 9.49-3.95-.79-6.43-1.21-12.53-1.21-18.22 0-26.36 8.77-45.98 25.32-57.29v-5.32c1.14-16.34 10.11-33.05 24.83-45.65 15.78-13.66 35.4-20.66 53.87-19.41l19.25 1.23-.96 18.99c-.47 9.59 2.29 23.8 7.69 40.74 21.59 7.32 43.12 29.05 43.12 51.77 0 13.72 3.56 23.53 7.38 30.16 10.62-11.67 28.92-20.51 42.25-23.56 5.47-12.53 12.69-24.88 24.66-38.74l11.17-12.94 14.45 9.26c32.13 20.59 41.54 43.95 47.83 62.28 4.75 2.14 12.37 7.31 15.92 10.8 10.16 9.8 21.74 28.01 21.74 47.24v1.62c-.43 11.24-1.94 20.61-5.78 29.3 14.93 6.77 39.83 14.73 67.08 14.73 58.05 0 85.76-17.42 124.08-41.54l18.89-11.8 10.67 7.13c15.03 10.06 25.53 23.98 31.38 39.97 12.38-7.74 26.24-26.45 40.64-45.96l19.17-25.82 15.05 8.24c19.48 10.57 42.74 38.8 49.1 68.68 44.7-5.88 71.06-19.87 101.88-38.34l9.16-5.5 9.61 4.57c18.36 8.79 31.67 24.44 39.35 45.38 101.77-87.98 203.49-127.61 315.34-146.2v1495.84c-119.76-15.37-180.49-83.64-198.36-118.18" fill="#e22739"/></g></svg>