<svg height="176.53777mm" viewBox="0 0 625.52749 625.52749" width="176.53777mm" xmlns="http://www.w3.org/2000/svg"><g transform="matrix(.125 0 0 -.125 91.2631 625.52753)"><g fill="#f57815"><path d="m1087.32 3410.57v474.01c0 114.21.26 227.15.82 338.84.54 111.66 1.36 224.64 2.46 338.86l-146.182-1151.71h-110.063l-144.542 1151.71c1.074-114.22 1.89-227.2 2.457-338.86.539-111.69.816-224.63.816-338.84v-474.01h-112.871v1566.7h166.855l142.321-1224.05 142.309 1224.05h171.77v-1566.7z"/><path d="m1324.5 3410.57h124.328v1566.7h-124.328z"/><path d="m1869.22 3806.52c-14.18 134.51-28.37 268.09-42.53 400.72-14.19 132.6-27.81 266.81-40.9 402.62-14.18-135.81-28.62-270.02-43.35-402.62-14.72-132.63-29.73-266.21-44.98-400.72zm44.17-395.95-29.44 262.7h-201.22l-29.44-262.7h-121.05l184.85 1566.7h145.59l175.03-1566.7z"/><path d="m2624.97 3410.57v474.01c0 114.21.25 227.15.82 338.84.54 111.66 1.36 224.64 2.45 338.86l-146.18-1151.71h-110.06l-144.54 1151.71c1.07-114.22 1.9-227.2 2.45-338.86.54-111.69.82-224.63.82-338.84v-474.01h-112.87v1566.7h166.86l142.31-1224.05 142.33 1224.05h171.75v-1566.7z"/><path d="m2862.15 3410.57h124.32v1566.7h-124.32z"/></g><path d="m1218.77 1367.4c-7.68 69.33-16.04 149.28-25.19 239.88-9.15 90.59-18.29 184.71-27.44 282.41s-18.3 195.35-27.44 293.1c-9.15 97.65-17.11 188.24-24 271.78-6.83 83.48-12.99 156.34-18.3 218.61-5.36 62.21-8.81 107.51-10.27 135.88-1.53-28.37-4.97-73.67-10.28-135.88-5.36-62.27-12.25-135.13-20.61-218.61-8.41-83.54-17.17-174.13-26.31-271.78-9.09-97.75-18.64-195.4-28.58-293.1-9.932-97.7-19.815-191.82-29.698-282.41-9.937-90.6-19.422-170.55-28.57-239.88h-212.652l-210.395 1945.04h180.637c9.148-80.32 18.633-169.38 28.57-267.03 9.942-97.75 19.821-198.16 29.758-301.32 9.883-103.23 19.426-205.27 28.574-306.09 9.149-100.87 17.504-194.22 25.125-280.06 7.625-85.89 14.117-161.86 19.485-228.07 5.304-66.15 9.484-115.03 12.535-146.52 3.047 31.49 7.621 80.37 13.719 146.52 6.097 66.21 13.722 142.18 22.871 228.07 9.144 85.84 19.086 179.19 29.757 280.06 10.614 100.82 21.286 202.86 32.016 306.09 10.613 103.16 21.684 203.57 33.145 301.32 11.406 97.65 21.742 186.71 30.883 267.03h173.75c7.62-80.32 16.38-169.38 26.31-267.03 9.89-97.75 19.77-198.16 29.71-301.32 9.93-103.23 19.48-205.27 28.62-306.09 9.15-100.87 17.51-194.22 25.13-280.06 7.62-85.89 14.06-161.86 19.43-228.07 5.3-66.15 9.54-115.03 12.59-146.52 3.05 31.49 8.02 80.37 14.85 146.52 6.89 66.21 14.45 142.18 22.87 228.07 8.35 85.84 17.9 179.19 28.57 280.06 10.67 100.82 21.34 202.86 32.02 306.09 10.67 103.16 21.73 203.57 33.14 301.32 11.46 97.65 21.74 186.71 30.89 267.03h182.95l-237.84-1945.04z" fill="#2b3998"/><path d="m1218.77 1367.4c-7.68 69.33-16.04 149.28-25.19 239.88-9.15 90.59-18.29 184.71-27.44 282.41s-18.3 195.35-27.44 293.1c-9.15 97.65-17.11 188.24-24 271.78-6.83 83.48-12.99 156.34-18.3 218.61-5.36 62.21-8.81 107.51-10.27 135.88-1.53-28.37-4.97-73.67-10.28-135.88-5.36-62.27-12.25-135.13-20.61-218.61-8.41-83.54-17.17-174.13-26.31-271.78-9.09-97.75-18.64-195.4-28.58-293.1-9.932-97.7-19.815-191.82-29.698-282.41-9.937-90.6-19.422-170.55-28.57-239.88h-212.652l-210.395 1945.04h180.637c9.148-80.32 18.633-169.38 28.57-267.03 9.942-97.75 19.821-198.16 29.758-301.32 9.883-103.23 19.426-205.27 28.574-306.09 9.149-100.87 17.504-194.22 25.125-280.06 7.625-85.89 14.117-161.86 19.485-228.07 5.304-66.15 9.484-115.03 12.535-146.52 3.047 31.49 7.621 80.37 13.719 146.52 6.097 66.21 13.722 142.18 22.871 228.07 9.144 85.84 19.086 179.19 29.757 280.06 10.614 100.82 21.286 202.86 32.016 306.09 10.613 103.16 21.684 203.57 33.145 301.32 11.406 97.65 21.742 186.71 30.883 267.03h173.75c7.62-80.32 16.38-169.38 26.31-267.03 9.89-97.75 19.77-198.16 29.71-301.32 9.93-103.23 19.48-205.27 28.62-306.09 9.15-100.87 17.51-194.22 25.13-280.06 7.62-85.89 14.06-161.86 19.43-228.07 5.3-66.15 9.54-115.03 12.59-146.52 3.05 31.49 8.02 80.37 14.85 146.52 6.89 66.21 14.45 142.18 22.87 228.07 8.35 85.84 17.9 179.19 28.57 280.06 10.67 100.82 21.34 202.86 32.02 306.09 10.67 103.16 21.73 203.57 33.14 301.32 11.46 97.65 21.74 186.71 30.89 267.03h182.95l-237.84-1945.04z" fill="none" stroke="#2b3998" stroke-miterlimit="10" stroke-width="55.0186"/><path d="m1794.98 1367.4v1945.04h498.48v-181.95h-324.68v-680.68h228.69v-181.95h-228.69v-723.21h336.15v-177.25z" fill="#2b3998"/><path d="m1794.98 1367.4v1945.04h498.48v-181.95h-324.68v-680.68h228.69v-181.95h-228.69v-723.21h336.15v-177.25z" fill="none" stroke="#2b3998" stroke-miterlimit="10" stroke-width="55.0186"/><path d="m2842.23 2128.39c0 55.16-8.02 94.94-24 119.38-16.04 24.38-48.45 36.6-97.18 36.6h-128.07v-739.72h125.76c82.32 0 123.49 50.41 123.49 151.28zm-6.84 853.17c0 55.16-8.8 93.76-26.31 115.85-17.56 22.03-47.66 33.08-90.34 33.08h-125.76v-687.73h128.07c41.16 0 70.47 10.22 88.03 30.72 17.51 20.45 26.31 53.53 26.31 99.24zm-416.21-1614.16v1945.04h299.56c100.62 0 172.27-26.38 214.96-79.14 42.63-52.81 64.03-137.48 64.03-254.09v-389.93c0-121.37-38.11-193.05-114.34-215.08 36.59-7.93 68.61-28.02 96.05-60.28 27.44-32.31 41.16-83.89 41.16-154.8v-463.19c0-115.03-25.18-198.52-75.49-250.51-50.31-52-125.75-78.02-226.37-78.02z" fill="#2b3998"/><path d="m2842.23 2128.39c0 55.16-8.02 94.94-24 119.38-16.04 24.38-48.45 36.6-97.18 36.6h-128.07v-739.72h125.76c82.32 0 123.49 50.41 123.49 151.28zm-6.84 853.17c0 55.16-8.8 93.76-26.31 115.85-17.56 22.03-47.66 33.08-90.34 33.08h-125.76v-687.73h128.07c41.16 0 70.47 10.22 88.03 30.72 17.51 20.45 26.31 53.53 26.31 99.24zm-416.21-1614.16v1945.04h299.56c100.62 0 172.27-26.38 214.96-79.14 42.63-52.81 64.03-137.48 64.03-254.09v-389.93c0-121.37-38.11-193.05-114.34-215.08 36.59-7.93 68.61-28.02 96.05-60.28 27.44-32.31 41.16-83.89 41.16-154.8v-463.19c0-115.03-25.18-198.52-75.49-250.51-50.31-52-125.75-78.02-226.37-78.02z" fill="none" stroke="#2b3998" stroke-miterlimit="10" stroke-width="55.0186"/><path d="m715.277 30.4102v1268.1498h477.073v-118.64h-314.483v-449.94h216.073v-118.652h-216.073v-580.9178h-162.59" fill="#2b3998"/><path d="m1292.88 30.4102v1268.1498h466.37v-118.64h-303.78v-443.779h213.92v-118.653h-213.92v-471.508h314.48v-115.5698h-477.07" fill="#2b3998"/><path d="m2255.58 406.391c0 18.488-.74 34.14-2.14 47-1.44 12.828-4.28 23.879-8.56 33.121-4.27 9.25-10 17.726-17.12 25.429-7.15 7.707-15.71 16.18-25.67 25.418-21.39 18.5-42.78 35.692-64.18 51.621-21.39 15.918-43.52 31.829-66.32 47.77-22.83 15.922-45.99 32.871-69.53 50.852-23.53 17.968-48.13 38.257-73.8 60.867-28.55 23.621-45.29 48-50.27 73.191-5.02 25.16-7.49 55.711-7.49 91.68v189.53c0 139.7 91.25 209.56 273.83 209.56 98.41 0 167.57-17.21 207.52-51.62 39.91-34.42 59.9-87.06 59.9-157.94v-231.132h-151.9v215.722c0 31.84-7.49 57.52-22.46 77.05-14.98 19.5-44.59 29.28-88.78 29.28-75.61 0-113.39-30.31-113.39-90.92v-187.991c0-26.719 2.48-46.219 7.49-58.551 4.99-12.328 15.31-25.687 31.02-40.058 42.79-39.051 86.65-73.461 131.57-103.239 44.92-29.812 90.19-64.211 135.85-103.242 31.35-26.719 52.04-54.469 62.04-83.211 9.96-28.777 14.97-68.328 14.97-118.648v-181.828c0-67.801-21.05-119.68-63.1-155.6332-42.09-35.9688-112.32-53.9297-210.73-53.9297-95.57 0-165.09 17.9609-208.59 53.9297-43.51 35.9532-65.24 87.8322-65.24 155.6332v269.66h156.17v-252.703c0-32.887 8.18-59.59 24.6-80.129 16.38-20.571 46-30.821 88.78-30.821 41.36 0 70.94 7.95 88.79 23.891 17.81 15.898 26.74 39.281 26.74 70.102z" fill="#2b3998"/><path d="m2674.89 30.4102v1149.5098h-196.81v118.64h556.22v-118.64h-196.82v-1149.5098h-162.59" fill="#2b3998"/><path d="m22.4961 0-22.4961.0507813v5004.1692187h47.3398v-115.27h307.5272v115.27h59.16v-5004.1692187m-59.16 211.4882187v210.16h-307.5272v-210.16zm0 311.832v210.16h-307.5272v-210.16zm0 311.828v210.141h-307.5272v-210.141zm0 311.831v210.14h-307.5272v-210.14zm0 311.83v210.14h-307.5272v-210.14zm0 311.83v210.14h-307.5272v-210.14zm0 311.8v210.17h-307.5272v-210.17zm0 311.83v210.17h-307.5272v-210.17zm0 311.83v210.17h-307.5272v-210.17zm0 311.83v210.17h-307.5272v-210.17zm0 311.83v210.17h-307.5272v-210.17zm0 311.83v210.17h-307.5272v-210.17zm0 311.83v210.17h-307.5272v-210.17zm0 311.83v210.17h-307.5272v-210.17zm0 311.83v210.17h-307.5272v-210.17zm0-4577.0792187v109.7892187h-307.5272v-109.7892187z" fill="#ec008c" fill-rule="evenodd"/><path d="m3152.47 0-22.49.0507813v5004.1692187h47.34v-115.27h307.52v115.27h59.17v-5004.1692187m-59.17 211.4882187v210.16h-307.52v-210.16zm0 311.832v210.16h-307.52v-210.16zm0 311.828v210.141h-307.52v-210.141zm0 311.831v210.14h-307.52v-210.14zm0 311.83v210.14h-307.52v-210.14zm0 311.83v210.14h-307.52v-210.14zm0 311.8v210.17h-307.52v-210.17zm0 311.83v210.17h-307.52v-210.17zm0 311.83v210.17h-307.52v-210.17zm0 311.83v210.17h-307.52v-210.17zm0 311.83v210.17h-307.52v-210.17zm0 311.83v210.17h-307.52v-210.17zm0 311.83v210.17h-307.52v-210.17zm0 311.83v210.17h-307.52v-210.17zm0 311.83v210.17h-307.52v-210.17zm0-4577.0792187v109.7892187h-307.52v-109.7892187z" fill="#ec008c" fill-rule="evenodd"/></g></svg>