<svg height="924.63202" viewBox="0 0 1014.6491 866.84212" width="1082.292" xmlns="http://www.w3.org/2000/svg"><g transform="translate(46.874344 -46.87426)"><g fill-rule="evenodd"><path d="m560.9 177.75v264h96.864a54 54 0 0 1 -9.865-31 54 54 0 0 1 54-54 54 54 0 0 1 54 54 54 54 0 0 1 -9.818 31h93.89v-85.248a54 54 0 0 0 26.929 7.248 54 54 0 0 0 54-54 54 54 0 0 0 -54-54 54 54 0 0 0 -26.928 7.271v-85.271h-90.238a54 54 0 0 1 6.166 25 54 54 0 0 1 -54 54 54 54 0 0 1 -54-54 54 54 0 0 1 6.182-25zm14.5 16h19.5v19.5h-19.5zm38.5 0h19.5v19.5h-19.5zm154 0h19.5v19.5h-19.5zm38.5 0h19.5v19.5h-19.5zm-231 215h19.5v19.5h-19.5zm38.5 0h19.5v19.5h-19.5zm154 0h19.5v19.5h-19.5zm38.5 0h19.5v19.5h-19.5z" fill="#2a2a2a"/><path d="m424.9 93.749996a54 54 0 0 0 -54 54.000004 54 54 0 0 0 9.15 30h-89.15v90.102a54 54 0 0 0 -34-12.102 54 54 0 0 0 -54 54 54 54 0 0 0 54 54 54 54 0 0 0 34-12.082v90.082h89.864a54 54 0 0 1 -9.865-31 54 54 0 0 1 54-54 54 54 0 0 1 54 54 54 54 0 0 1 -9.818 31h91.818v-85.906a54 54 0 0 0 4.541 2.469 54 54 0 0 0 .395.19 54 54 0 0 0 4.351 1.829 54 54 0 0 0 .842.307 54 54 0 0 0 4.072 1.252 54 54 0 0 0 1.319.336 54 54 0 0 0 3.677.738 54 54 0 0 0 1.885.285 54 54 0 0 0 3.207.314 54 54 0 0 0 3.711.186 54 54 0 0 0 4.608-.23 54 54 0 0 0 2.664-.323 54 54 0 0 0 2.675-.406 54 54 0 0 0 2.65-.594 54 54 0 0 0 2.587-.662 54 54 0 0 0 2.578-.855 54 54 0 0 0 2.527-.924 54 54 0 0 0 2.45-1.096 54 54 0 0 0 2.447-1.181 54 54 0 0 0 2.324-1.333 54 54 0 0 0 2.305-1.414 54 54 0 0 0 2.207-1.578 54 54 0 0 0 2.136-1.625 54 54 0 0 0 2.024-1.777 54 54 0 0 0 1.978-1.842 54 54 0 0 0 1.842-1.978 54 54 0 0 0 1.777-2.024 54 54 0 0 0 1.625-2.137 54 54 0 0 0 1.579-2.207 54 54 0 0 0 1.414-2.304 54 54 0 0 0 1.332-2.324 54 54 0 0 0 1.181-2.448 54 54 0 0 0 1.096-2.449 54 54 0 0 0 .924-2.527 54 54 0 0 0 .855-2.578 54 54 0 0 0 .662-2.586 54 54 0 0 0 .594-2.65 54 54 0 0 0 .406-2.677 54 54 0 0 0 .323-2.664 54 54 0 0 0 .23-4.607 54 54 0 0 0 -.23-4.607 54 54 0 0 0 -.323-2.664 54 54 0 0 0 -.406-2.676 54 54 0 0 0 -.594-2.65 54 54 0 0 0 -.662-2.587 54 54 0 0 0 -.855-2.578 54 54 0 0 0 -.924-2.527 54 54 0 0 0 -1.096-2.45 54 54 0 0 0 -1.181-2.447 54 54 0 0 0 -1.332-2.324 54 54 0 0 0 -1.414-2.304 54 54 0 0 0 -1.579-2.207 54 54 0 0 0 -1.625-2.137 54 54 0 0 0 -1.777-2.024 54 54 0 0 0 -1.842-1.978 54 54 0 0 0 -1.978-1.842 54 54 0 0 0 -2.024-1.777 54 54 0 0 0 -2.136-1.625 54 54 0 0 0 -2.207-1.578 54 54 0 0 0 -2.305-1.414 54 54 0 0 0 -2.326-1.334 54 54 0 0 0 -2.41-1.165 54 54 0 0 0 -2.504-1.12 54 54 0 0 0 -2.487-.907 54 54 0 0 0 -2.6-.863 54 54 0 0 0 -2.585-.662 54 54 0 0 0 -2.65-.594 54 54 0 0 0 -2.676-.406 54 54 0 0 0 -2.664-.323 54 54 0 0 0 -4.608-.23 54 54 0 0 0 -4.728.244 54 54 0 0 0 -2.121.258 54 54 0 0 0 -3.354.514 54 54 0 0 0 -1.666.375 54 54 0 0 0 -3.707.953 54 54 0 0 0 -1.191.396 54 54 0 0 0 -4.002 1.469 54 54 0 0 0 -.786.35 54 54 0 0 0 -4.209 2.045 54 54 0 0 0 -2.109 1.209 54 54 0 0 0 -.127.074v-85.887h-91.13a54 54 0 0 0 9.13-30 54 54 0 0 0 -54-54.000004zm-122 100.000004h19.5v19.5h-19.5zm38.5 0h19.5v19.5h-19.5zm38.5 0h19.5v19.5h-19.5zm38.5 0h19.5v19.5h-19.5zm38.5 0h19.5v19.5h-19.5zm38.5 0h19.5v19.5h-19.5zm38.5 0h19.5v19.5h-19.5zm-231 215h19.5v19.5h-19.5zm38.5 0h19.5v19.5h-19.5zm154 0h19.5v19.5h-19.5zm38.5 0h19.5v19.5h-19.5z" fill="#e11a1a"/><path d="m7.9 177.75v84.166a54 54 0 0 1 25-6.166 54 54 0 0 1 54 54 54 54 0 0 1 -54 54 54 54 0 0 1 -25-6.182v84.182h283v-90.082a54 54 0 0 1 -34 12.082 54 54 0 0 1 -54-54 54 54 0 0 1 54-54 54 54 0 0 1 34 12.102v-90.102zm17.5 16h19.5v19.5h-19.5zm38.5 0h19.5v19.5h-19.5zm38.5 0h19.5v19.5h-19.5zm38.5 0h19.5v19.5h-19.5zm38.5 0h19.5v19.5h-19.5zm38.5 0h19.5v19.5h-19.5zm38.5 0h19.5v19.5h-19.5zm-231 215h19.5v19.5h-19.5zm38.5 0h19.5v19.5h-19.5zm38.5 0h19.5v19.5h-19.5zm38.5 0h19.5v19.5h-19.5zm38.5 0h19.5v19.5h-19.5zm38.5 0h19.5v19.5h-19.5zm38.5 0h19.5v19.5h-19.5z" fill="#2a2a2a"/></g><path d="m11.74 385.514h31.73v107.496q0 13.889 2.37 19.648 2.485 5.758 8.018 9.259 5.646 3.387 13.55 3.387 8.355 0 14.34-3.839 6.097-3.84 8.356-9.71 2.37-5.985 2.37-22.697v-103.544h31.73v99.027q0 25.067-2.823 34.778-2.823 9.71-10.84 18.744-7.904 9.033-18.292 13.436-10.388 4.291-24.164 4.291-18.066 0-31.503-8.243-13.324-8.355-19.083-20.776-5.758-12.534-5.758-42.23v-99.027zm158.387 0h30.261l71.25 109.302v-109.302h31.616v166.098h-30.374l-71.137-108.962v108.963h-31.616zm267.123 22.583-23.372 20.664q-12.308-17.163-25.068-17.163-6.21 0-10.162 3.387-3.952 3.275-3.952 7.453 0 4.177 2.823 7.904 3.839 4.968 23.147 21.34 18.067 15.131 21.906 19.083 9.598 9.71 13.55 18.631 4.065 8.808 4.065 19.309 0 20.437-14.115 33.761-14.114 13.324-36.81 13.324-17.728 0-30.939-8.694-13.098-8.695-22.47-27.326l26.535-16.034q11.97 22.019 27.552 22.019 8.13 0 13.662-4.743 5.533-4.742 5.533-10.952 0-5.646-4.178-11.292-4.178-5.646-18.405-17.276-27.1-22.131-35.004-34.1-7.904-12.082-7.904-24.051 0-17.276 13.099-29.584 13.21-12.42 32.519-12.42 12.42 0 23.6 5.758 11.29 5.759 24.389 21.002zm42.198-22.583h90.67v30.94h-59.28v30.034h59.28v30.375h-59.28v43.698h59.28v31.051h-90.67zm131.174 0h33.536q27.551 0 39.181 4.969 11.743 4.855 18.857 16.26 7.114 11.404 7.114 26.986 0 16.373-7.904 27.438-7.791 10.953-23.6 16.599l39.295 73.846h-34.552l-37.375-70.346h-2.936v70.346h-31.616zm31.616 64.926h9.937q15.13 0 20.776-3.952 5.759-3.952 5.759-13.098 0-5.42-2.823-9.372-2.823-4.065-7.565-5.758-4.743-1.807-17.39-1.807h-8.694zm109.495-64.926h90.67v30.94h-59.28v30.034h59.28v30.375h-59.28v43.698h59.28v31.051h-90.67z" fill="#2a2a2a" transform="translate(0 93.749996)"/><path d="m112.36 609.433-25.9 22.897q-13.64-19.02-27.779-19.02-6.881 0-11.26 3.754-4.38 3.629-4.38 8.258 0 4.63 3.128 8.759 4.254 5.505 25.65 23.648 20.02 16.766 24.274 21.145 10.635 10.76 15.014 20.645 4.505 9.76 4.505 21.396 0 22.647-15.64 37.412-15.64 14.764-40.79 14.764-19.644 0-34.284-9.634-14.513-9.634-24.898-30.279l29.404-17.767q13.263 24.399 30.53 24.399 9.008 0 15.14-5.255 6.13-5.256 6.13-12.137 0-6.256-4.63-12.512-4.629-6.257-20.394-19.144-30.03-24.524-38.788-37.787-8.759-13.388-8.759-26.651 0-19.144 14.515-32.782 14.639-13.763 36.035-13.763 13.763 0 26.15 6.38 12.512 6.382 27.027 23.274zm48.786-25.025h100.473v34.284h-65.69v33.282h65.69v33.658h-65.69v48.422h65.69v34.409h-100.473zm147.382 0h37.16q30.53 0 43.418 5.505 13.013 5.38 20.896 18.018 7.882 12.637 7.882 29.904 0 18.143-8.758 30.405-8.634 12.137-26.15 18.393l43.542 81.83h-38.288l-41.415-77.951h-3.253v77.95h-35.034v-184.053zm35.034 71.945h11.01q16.767 0 23.023-4.379 6.381-4.38 6.381-14.514 0-6.006-3.128-10.385-3.128-4.505-8.383-6.381-5.255-2.002-19.269-2.002h-9.634zm120.731-71.945h34.784v184.055h-34.784zm86.197 0h100.473v34.284h-65.689v33.282h65.69v33.658h-65.69v48.422h65.69v34.409h-100.474zm145.13 0h33.533l78.952 121.118v-121.118h35.034v184.055h-33.658l-78.827-120.743v120.743h-35.034z" fill="#e11a1a" transform="translate(0 93.749996)"/></g></svg>