<svg height="100.89093mm" viewBox="0 0 357.48755 357.48754" width="100.89093mm" xmlns="http://www.w3.org/2000/svg"><g transform="matrix(.125 0 0 -.125 -15.88425 306.95069)"><g fill="#231f20" font-family="Merriweather" font-size="21.401899"><text font-weight="bold" transform="matrix(10 0 0 -10 127.074 81)"><tspan x="0 23.556602 36.610939 52.130939 66.585548 74.644531" y="0">Wendie</tspan></text><text font-weight="300" transform="matrix(10 0 0 -10 1004.57 81)"><tspan x="0 22.489843 34.968853 48.691799 57.973827 70.453125 81.939842" y="0">Webfest</tspan></text><text font-weight="bold" transform="matrix(10 0 0 -10 1920.14 81)"><tspan x="0 18.780079 31.762108 54.491806 68.612114 82.750793 93.160957" y="0">Hamburg</tspan></text></g><path d="m2775.35 713.512c-9.07 0-16.72 7.027-17.35 16.226l-84.39 1244.852c-91.68 13.1-165.81 4.69-194.35.28l-60.76-780.43c-.73-9.58-19.04-10.93-17.39-1.08 3.05 18.26-14.98 16.87-15.53 24.66l60.02 773c.6 7.68 6.17 14.04 13.69 15.66 4.14.89 102.95 21.54 233.55.16 7.97-1.3 14.01-7.93 14.55-15.99l86.89-1284.549c.65-9.59-8.15 7.898-17.74 7.25-.4-.031-.8-.039-1.19-.039zm190.11-272.16c-180.62 0-277.36 79.187-370.9 155.777-92.92 76.062-180.68 147.91-348.87 147.91-167.93 0-250.26-71.258-337.43-146.707-88.16-76.293-179.32-155.184-360.22-155.184s-272.06 78.891-360.22 155.184c-87.17 75.449-169.51 146.707-337.441 146.707-168.051 0-252.406-71.328-341.715-146.828-90.16-76.242-183.398-155.063-364.191-155.063-9.61 0-17.399 7.793-17.399 17.403 0 9.609 7.789 17.398 17.399 17.398 168.054 0 252.41 71.321 341.715 146.832 90.164 76.231 183.398 155.059 364.191 155.059 180.901 0 272.061-78.891 360.221-155.18 87.17-75.449 169.51-146.711 337.44-146.711s250.27 71.262 337.44 146.711c88.16 76.289 179.32 155.18 360.21 155.18 180.62 0 277.36-79.18 370.9-155.781 92.92-76.047 180.68-147.899 348.87-147.899 9.61 0 17.4-7.801 17.4-17.41s-7.79-17.398-17.4-17.398" fill="#050606"/><path d="m1230.54 433.32 886.24 1140.65 853.86-1111.439m0 0 .03-.172m-2826.19 6.743 15.219 19.136 929.301 1085.732 554.01-609.779" style="fill:none;stroke:#050606;stroke-width:16.43;stroke-linecap:round;stroke-linejoin:round;stroke-miterlimit:10"/><path d="m2570.79 1769.77c-69.63 0-117.22 13.21-120.26 14.07-6.15 1.76-9.73 8.17-7.97 14.33 1.73 6.17 8.14 9.76 14.32 7.98 1.12-.31 112.27-30.99 242.26 3.08 6.14 1.62 12.54-2.07 14.16-8.27 1.63-6.2-2.08-12.55-8.28-14.16-49.05-12.86-95.12-17.03-134.23-17.03zm7.17-216.16c-74.87 0-129.13 14.96-132.52 15.92-6.17 1.73-9.74 8.14-8 14.3 1.72 6.16 8.14 9.75 14.3 8.02 1.2-.33 121.13-33.24 248.28.06 6.13 1.66 12.54-2.09 14.17-8.28 1.62-6.2-2.09-12.54-8.29-14.16-45.35-11.89-89.38-15.86-127.94-15.86zm.76-217.79c-85.19 0-146.92 19.62-150.78 20.88-6.08 1.98-9.4 8.53-7.43 14.61 1.98 6.1 8.56 9.43 14.61 7.45 1.37-.44 137.89-43.63 282.44.07 6.25 1.87 12.62-1.62 14.47-7.74 1.86-6.13-1.62-12.61-7.74-14.46-51.61-15.61-101.7-20.81-145.57-20.81zm21.52-238.8c-80.58 0-135.22 19.77-138.63 21.03-6 2.23-9.06 8.9-6.84 14.9 2.22 5.99.04 12.55 6.09 10.31 1.19-.44 129.49-46.86 273.77-3.23 6.17 1.89 12.61-1.63 14.45-7.74 1.87-6.13-1.61-12.61-7.75-14.46-51.56-15.6-99.74-20.81-141.09-20.81" fill="#050606"/></g></svg>