<?xml version="1.0" encoding="UTF-8"?>
<svg width="31px" height="30px" viewBox="0 0 31 30" version="1.1" xmlns="http://www.w3.org/2000/svg" xmlns:xlink="http://www.w3.org/1999/xlink">
    <!-- Generator: Sketch 53.1 (72631) - https://sketchapp.com -->
    <title>Facebook</title>
    <desc>Created with Sketch.</desc>
    <g id="Page-1" stroke="none" stroke-width="1" fill="none" fill-rule="evenodd">
        <g id="Seriale---Home" transform="translate(-1233.000000, -5754.000000)" fill="currentColor">
            <g id="footer" transform="translate(0.000000, 5670.199524)">
                <g id="social-icons" transform="translate(1233.700000, 84.250000)">
                    <path d="M29.3235573,27.7052542 C29.3235573,28.5990751 28.5990751,29.3243561 27.7052542,29.3243561 L20.2327833,29.3243561 L20.2327833,17.9682771 L24.0445023,17.9682771 L24.6156211,13.5431046 L20.2327833,13.5431046 L20.2327833,10.7170649 C20.2327833,9.43584164 20.5890336,8.56278866 22.4261991,8.56278866 L24.7697832,8.56198989 L24.7697832,4.60329767 C24.3640093,4.54978024 22.9733549,4.42916634 21.3550518,4.42916634 C17.9762648,4.42916634 15.6630338,6.49158428 15.6630338,10.2793402 L15.6630338,13.5431046 L11.8417297,13.5431046 L11.8417297,17.9682771 L15.6630338,17.9682771 L15.6630338,29.3243561 L1.61830316,29.3243561 C0.724482212,29.3243561 0,28.5990751 0,27.7052542 L0,1.61910192 C0,0.724482212 0.724482212,0 1.61830316,0 L27.7052542,0 C28.5990751,0 29.3235573,0.724482212 29.3235573,1.61910192 L29.3235573,27.7052542" id="Facebook"></path>
                </g>
            </g>
        </g>
    </g>
</svg>